<?xml version="1.0" encoding="UTF-8" standalone="no"?><!DOCTYPE svg PUBLIC "-//W3C//DTD SVG 1.1//EN" "http://www.w3.org/Graphics/SVG/1.1/DTD/svg11.dtd"><svg width="48px" height="48px" version="1.1" xmlns="http://www.w3.org/2000/svg" xmlns:xlink="http://www.w3.org/1999/xlink" xml:space="preserve" style="fill-rule:evenodd;clip-rule:evenodd;stroke-linejoin:round;stroke-miterlimit:1.5;"><path id="circle" d="M24.155,0L24.31,0.002L24.465,0.004L24.619,0.008L24.773,0.012L24.927,0.018L25.081,0.024L25.234,0.031L25.387,0.04L25.54,0.049L25.693,0.059L25.845,0.07L25.998,0.082L26.149,0.095L26.301,0.109L26.452,0.124L26.603,0.14L26.754,0.157L26.905,0.174L27.055,0.193L27.205,0.213L27.355,0.233L27.504,0.254L27.653,0.277L27.802,0.3L27.95,0.324L28.098,0.349L28.246,0.375L28.394,0.402L28.541,0.43L28.688,0.458L28.834,0.488L28.981,0.518L29.126,0.55L29.272,0.582L29.417,0.615L29.562,0.649L29.707,0.684L29.851,0.72L29.995,0.756L30.139,0.794L30.282,0.832L30.425,0.871L30.567,0.911L30.709,0.952L30.851,0.994L30.993,1.036L31.134,1.08L31.274,1.124L31.415,1.169L31.555,1.215L31.694,1.262L31.833,1.31L31.972,1.358L32.11,1.407L32.248,1.457L32.386,1.508L32.523,1.56L32.66,1.612L32.797,1.666L32.933,1.72L33.068,1.775L33.203,1.831L33.338,1.887L33.473,1.945L33.606,2.003L33.74,2.062L33.873,2.121L34.006,2.182L34.138,2.243L34.27,2.305L34.401,2.368L34.532,2.432L34.663,2.496L34.793,2.561L34.922,2.627L35.051,2.694L35.18,2.761L35.308,2.83L35.436,2.898L35.563,2.968L35.69,3.039L35.816,3.11L35.942,3.182L36.068,3.254L36.193,3.328L36.317,3.402L36.441,3.477L36.564,3.552L36.687,3.628L36.81,3.705L36.932,3.783L37.053,3.862L37.174,3.941L37.295,4.021L37.415,4.101L37.534,4.182L37.653,4.264L37.772,4.347L37.889,4.43L38.007,4.514L38.124,4.599L38.24,4.684L38.356,4.771L38.471,4.857L38.586,4.945L38.7,5.033L38.814,5.122L38.927,5.211L39.039,5.301L39.151,5.392L39.263,5.483L39.373,5.575L39.484,5.668L39.593,5.761L39.703,5.855L39.811,5.95L39.919,6.045L40.027,6.141L40.134,6.238L40.24,6.335L40.346,6.433L40.451,6.531L40.555,6.63L40.659,6.73L40.762,6.83L40.865,6.931L40.967,7.033L41.069,7.135L41.17,7.238L41.27,7.341L41.37,7.445L41.469,7.549L41.567,7.654L41.665,7.76L41.762,7.866L41.859,7.973L41.955,8.081L42.05,8.189L42.145,8.297L42.239,8.407L42.332,8.516L42.425,8.627L42.517,8.737L42.608,8.849L42.699,8.961L42.789,9.073L42.878,9.186L42.967,9.3L43.055,9.414L43.143,9.529L43.229,9.644L43.316,9.76L43.401,9.876L43.486,9.993L43.57,10.111L43.653,10.228L43.736,10.347L43.818,10.466L43.899,10.585L43.979,10.705L44.059,10.826L44.138,10.947L44.217,11.068L44.295,11.19L44.372,11.313L44.448,11.436L44.523,11.559L44.598,11.683L44.672,11.807L44.746,11.932L44.818,12.058L44.89,12.184L44.961,12.31L45.032,12.437L45.102,12.564L45.17,12.692L45.239,12.82L45.306,12.949L45.373,13.078L45.439,13.207L45.504,13.337L45.568,13.468L45.632,13.599L45.695,13.73L45.757,13.862L45.818,13.994L45.879,14.127L45.938,14.26L45.997,14.394L46.055,14.527L46.113,14.662L46.169,14.797L46.225,14.932L46.28,15.067L46.334,15.203L46.388,15.34L46.44,15.477L46.492,15.614L46.543,15.752L46.593,15.89L46.642,16.028L46.69,16.167L46.738,16.306L46.785,16.445L46.831,16.585L46.876,16.726L46.92,16.866L46.964,17.007L47.006,17.149L47.048,17.291L47.089,17.433L47.129,17.575L47.168,17.718L47.206,17.861L47.244,18.005L47.28,18.149L47.316,18.293L47.351,18.438L47.385,18.583L47.418,18.728L47.45,18.874L47.482,19.019L47.512,19.166L47.542,19.312L47.57,19.459L47.598,19.606L47.625,19.754L47.651,19.902L47.676,20.05L47.7,20.198L47.723,20.347L47.746,20.496L47.767,20.645L47.787,20.795L47.807,20.945L47.826,21.095L47.843,21.246L47.86,21.397L47.876,21.548L47.891,21.699L47.905,21.851L47.918,22.002L47.93,22.155L47.941,22.307L47.951,22.46L47.96,22.613L47.969,22.766L47.976,22.919L47.982,23.073L47.988,23.227L47.992,23.381L47.996,23.535L47.998,23.69L48,23.845L48,24L48,24.155L47.998,24.31L47.996,24.465L47.992,24.619L47.988,24.773L47.982,24.927L47.976,25.081L47.969,25.234L47.96,25.387L47.951,25.54L47.941,25.693L47.93,25.845L47.918,25.998L47.905,26.149L47.891,26.301L47.876,26.452L47.86,26.603L47.843,26.754L47.826,26.905L47.807,27.055L47.787,27.205L47.767,27.355L47.746,27.504L47.723,27.653L47.7,27.802L47.676,27.95L47.651,28.098L47.625,28.246L47.598,28.394L47.57,28.541L47.542,28.688L47.512,28.834L47.482,28.981L47.45,29.126L47.418,29.272L47.385,29.417L47.351,29.562L47.316,29.707L47.28,29.851L47.244,29.995L47.206,30.139L47.168,30.282L47.129,30.425L47.089,30.567L47.048,30.709L47.006,30.851L46.964,30.993L46.92,31.134L46.876,31.274L46.831,31.415L46.785,31.555L46.738,31.694L46.69,31.833L46.642,31.972L46.593,32.11L46.543,32.248L46.492,32.386L46.44,32.523L46.388,32.66L46.334,32.797L46.28,32.933L46.225,33.068L46.169,33.203L46.113,33.338L46.055,33.473L45.997,33.606L45.938,33.74L45.879,33.873L45.818,34.006L45.757,34.138L45.695,34.27L45.632,34.401L45.568,34.532L45.504,34.663L45.439,34.793L45.373,34.922L45.306,35.051L45.239,35.18L45.17,35.308L45.102,35.436L45.032,35.563L44.961,35.69L44.89,35.816L44.818,35.942L44.746,36.068L44.672,36.193L44.598,36.317L44.523,36.441L44.448,36.564L44.372,36.687L44.295,36.81L44.217,36.932L44.138,37.053L44.059,37.174L43.979,37.295L43.899,37.415L43.818,37.534L43.736,37.653L43.653,37.772L43.57,37.889L43.486,38.007L43.401,38.124L43.316,38.24L43.229,38.356L43.143,38.471L43.055,38.586L42.967,38.7L42.878,38.814L42.789,38.927L42.699,39.039L42.608,39.151L42.517,39.263L42.425,39.373L42.332,39.484L42.239,39.593L42.145,39.703L42.05,39.811L41.955,39.919L41.859,40.027L41.762,40.134L41.665,40.24L41.567,40.346L41.469,40.451L41.37,40.555L41.27,40.659L41.17,40.762L41.069,40.865L40.967,40.967L40.865,41.069L40.762,41.17L40.659,41.27L40.555,41.37L40.451,41.469L40.346,41.567L40.24,41.665L40.134,41.762L40.027,41.859L39.919,41.955L39.811,42.05L39.703,42.145L39.593,42.239L39.484,42.332L39.373,42.425L39.263,42.517L39.151,42.608L39.039,42.699L38.927,42.789L38.814,42.878L38.7,42.967L38.586,43.055L38.471,43.143L38.356,43.229L38.24,43.316L38.124,43.401L38.007,43.486L37.889,43.57L37.772,43.653L37.653,43.736L37.534,43.818L37.415,43.899L37.295,43.979L37.174,44.059L37.053,44.138L36.932,44.217L36.81,44.295L36.687,44.372L36.564,44.448L36.441,44.523L36.317,44.598L36.193,44.672L36.068,44.746L35.942,44.818L35.816,44.89L35.69,44.961L35.563,45.032L35.436,45.102L35.308,45.17L35.18,45.239L35.051,45.306L34.922,45.373L34.793,45.439L34.663,45.504L34.532,45.568L34.401,45.632L34.27,45.695L34.138,45.757L34.006,45.818L33.873,45.879L33.74,45.938L33.606,45.997L33.473,46.055L33.338,46.113L33.203,46.169L33.068,46.225L32.933,46.28L32.797,46.334L32.66,46.388L32.523,46.44L32.386,46.492L32.248,46.543L32.11,46.593L31.972,46.642L31.833,46.69L31.694,46.738L31.555,46.785L31.415,46.831L31.274,46.876L31.134,46.92L30.993,46.964L30.851,47.006L30.709,47.048L30.567,47.089L30.425,47.129L30.282,47.168L30.139,47.206L29.995,47.244L29.851,47.28L29.707,47.316L29.562,47.351L29.417,47.385L29.272,47.418L29.126,47.45L28.981,47.482L28.834,47.512L28.688,47.542L28.541,47.57L28.394,47.598L28.246,47.625L28.098,47.651L27.95,47.676L27.802,47.7L27.653,47.723L27.504,47.746L27.355,47.767L27.205,47.787L27.055,47.807L26.905,47.826L26.754,47.843L26.603,47.86L26.452,47.876L26.301,47.891L26.149,47.905L25.998,47.918L25.845,47.93L25.693,47.941L25.54,47.951L25.387,47.96L25.234,47.969L25.081,47.976L24.927,47.982L24.773,47.988L24.619,47.992L24.465,47.996L24.31,47.998L24.155,48L24,48L23.845,48L23.69,47.998L23.535,47.996L23.381,47.992L23.227,47.988L23.073,47.982L22.919,47.976L22.766,47.969L22.613,47.96L22.46,47.951L22.307,47.941L22.155,47.93L22.002,47.918L21.851,47.905L21.699,47.891L21.548,47.876L21.397,47.86L21.246,47.843L21.095,47.826L20.945,47.807L20.795,47.787L20.645,47.767L20.496,47.746L20.347,47.723L20.198,47.7L20.05,47.676L19.902,47.651L19.754,47.625L19.606,47.598L19.459,47.57L19.312,47.542L19.166,47.512L19.019,47.482L18.874,47.45L18.728,47.418L18.583,47.385L18.438,47.351L18.293,47.316L18.149,47.28L18.005,47.244L17.861,47.206L17.718,47.168L17.575,47.129L17.433,47.089L17.291,47.048L17.149,47.006L17.007,46.964L16.866,46.92L16.726,46.876L16.585,46.831L16.445,46.785L16.306,46.738L16.167,46.69L16.028,46.642L15.89,46.593L15.752,46.543L15.614,46.492L15.477,46.44L15.34,46.388L15.203,46.334L15.067,46.28L14.932,46.225L14.797,46.169L14.662,46.113L14.527,46.055L14.394,45.997L14.26,45.938L14.127,45.879L13.994,45.818L13.862,45.757L13.73,45.695L13.599,45.632L13.468,45.568L13.337,45.504L13.207,45.439L13.078,45.373L12.949,45.306L12.82,45.239L12.692,45.17L12.564,45.102L12.437,45.032L12.31,44.961L12.184,44.89L12.058,44.818L11.932,44.746L11.807,44.672L11.683,44.598L11.559,44.523L11.436,44.448L11.313,44.372L11.19,44.295L11.068,44.217L10.947,44.138L10.826,44.059L10.705,43.979L10.585,43.899L10.466,43.818L10.347,43.736L10.228,43.653L10.111,43.57L9.993,43.486L9.876,43.401L9.76,43.316L9.644,43.229L9.529,43.143L9.414,43.055L9.3,42.967L9.186,42.878L9.073,42.789L8.961,42.699L8.849,42.608L8.737,42.517L8.627,42.425L8.516,42.332L8.407,42.239L8.297,42.145L8.189,42.05L8.081,41.955L7.973,41.859L7.866,41.762L7.76,41.665L7.654,41.567L7.549,41.469L7.445,41.37L7.341,41.27L7.238,41.17L7.135,41.069L7.033,40.967L6.931,40.865L6.83,40.762L6.73,40.659L6.63,40.555L6.531,40.451L6.433,40.346L6.335,40.24L6.238,40.134L6.141,40.027L6.045,39.919L5.95,39.811L5.855,39.703L5.761,39.593L5.668,39.484L5.575,39.373L5.483,39.263L5.392,39.151L5.301,39.039L5.211,38.927L5.122,38.814L5.033,38.7L4.945,38.586L4.857,38.471L4.771,38.356L4.684,38.24L4.599,38.124L4.514,38.007L4.43,37.889L4.347,37.772L4.264,37.653L4.182,37.534L4.101,37.415L4.021,37.295L3.941,37.174L3.862,37.053L3.783,36.932L3.705,36.81L3.628,36.687L3.552,36.564L3.477,36.441L3.402,36.317L3.328,36.193L3.254,36.068L3.182,35.942L3.11,35.816L3.039,35.69L2.968,35.563L2.898,35.436L2.83,35.308L2.761,35.18L2.694,35.051L2.627,34.922L2.561,34.793L2.496,34.663L2.432,34.532L2.368,34.401L2.305,34.27L2.243,34.138L2.182,34.006L2.121,33.873L2.062,33.74L2.003,33.606L1.945,33.473L1.887,33.338L1.831,33.203L1.775,33.068L1.72,32.933L1.666,32.797L1.612,32.66L1.56,32.523L1.508,32.386L1.457,32.248L1.407,32.11L1.358,31.972L1.31,31.833L1.262,31.694L1.215,31.555L1.169,31.415L1.124,31.274L1.08,31.134L1.036,30.993L0.994,30.851L0.952,30.709L0.911,30.567L0.871,30.425L0.832,30.282L0.794,30.139L0.756,29.995L0.72,29.851L0.684,29.707L0.649,29.562L0.615,29.417L0.582,29.272L0.55,29.126L0.518,28.981L0.488,28.834L0.458,28.688L0.43,28.541L0.402,28.394L0.375,28.246L0.349,28.098L0.324,27.95L0.3,27.802L0.277,27.653L0.254,27.504L0.233,27.355L0.213,27.205L0.193,27.055L0.174,26.905L0.157,26.754L0.14,26.603L0.124,26.452L0.109,26.301L0.095,26.149L0.082,25.998L0.07,25.845L0.059,25.693L0.049,25.54L0.04,25.387L0.031,25.234L0.024,25.081L0.018,24.927L0.012,24.773L0.008,24.619L0.004,24.465L0.002,24.31L0,24.155L0,24L0,23.845L0.002,23.69L0.004,23.535L0.008,23.381L0.012,23.227L0.018,23.073L0.024,22.919L0.031,22.766L0.04,22.613L0.049,22.46L0.059,22.307L0.07,22.155L0.082,22.002L0.095,21.851L0.109,21.699L0.124,21.548L0.14,21.397L0.157,21.246L0.174,21.095L0.193,20.945L0.213,20.795L0.233,20.645L0.254,20.496L0.277,20.347L0.3,20.198L0.324,20.05L0.349,19.902L0.375,19.754L0.402,19.606L0.43,19.459L0.458,19.312L0.488,19.166L0.518,19.019L0.55,18.874L0.582,18.728L0.615,18.583L0.649,18.438L0.684,18.293L0.72,18.149L0.756,18.005L0.794,17.861L0.832,17.718L0.871,17.575L0.911,17.433L0.952,17.291L0.994,17.149L1.036,17.007L1.08,16.866L1.124,16.726L1.169,16.585L1.215,16.445L1.262,16.306L1.31,16.167L1.358,16.028L1.407,15.89L1.457,15.752L1.508,15.614L1.56,15.477L1.612,15.34L1.666,15.203L1.72,15.067L1.775,14.932L1.831,14.797L1.887,14.662L1.945,14.527L2.003,14.394L2.062,14.26L2.121,14.127L2.182,13.994L2.243,13.862L2.305,13.73L2.368,13.599L2.432,13.468L2.496,13.337L2.561,13.207L2.627,13.078L2.694,12.949L2.761,12.82L2.83,12.692L2.898,12.564L2.968,12.437L3.039,12.31L3.11,12.184L3.182,12.058L3.254,11.932L3.328,11.807L3.402,11.683L3.477,11.559L3.552,11.436L3.628,11.313L3.705,11.19L3.783,11.068L3.862,10.947L3.941,10.826L4.021,10.705L4.101,10.585L4.182,10.466L4.264,10.347L4.347,10.228L4.43,10.111L4.514,9.993L4.599,9.876L4.684,9.76L4.771,9.644L4.857,9.529L4.945,9.414L5.033,9.3L5.122,9.186L5.211,9.073L5.301,8.961L5.392,8.849L5.483,8.737L5.575,8.627L5.668,8.516L5.761,8.407L5.855,8.297L5.95,8.189L6.045,8.081L6.141,7.973L6.238,7.866L6.335,7.76L6.433,7.654L6.531,7.549L6.63,7.445L6.73,7.341L6.83,7.238L6.931,7.135L7.033,7.033L7.135,6.931L7.238,6.83L7.341,6.73L7.445,6.63L7.549,6.531L7.654,6.433L7.76,6.335L7.866,6.238L7.973,6.141L8.081,6.045L8.189,5.95L8.297,5.855L8.407,5.761L8.516,5.668L8.627,5.575L8.737,5.483L8.849,5.392L8.961,5.301L9.073,5.211L9.186,5.122L9.3,5.033L9.414,4.945L9.529,4.857L9.644,4.771L9.76,4.684L9.876,4.599L9.993,4.514L10.111,4.43L10.228,4.347L10.347,4.264L10.466,4.182L10.585,4.101L10.705,4.021L10.826,3.941L10.947,3.862L11.068,3.783L11.19,3.705L11.313,3.628L11.436,3.552L11.559,3.477L11.683,3.402L11.807,3.328L11.932,3.254L12.058,3.182L12.184,3.11L12.31,3.039L12.437,2.968L12.564,2.898L12.692,2.83L12.82,2.761L12.949,2.694L13.078,2.627L13.207,2.561L13.337,2.496L13.468,2.432L13.599,2.368L13.73,2.305L13.862,2.243L13.994,2.182L14.127,2.121L14.26,2.062L14.394,2.003L14.527,1.945L14.662,1.887L14.797,1.831L14.932,1.775L15.067,1.72L15.203,1.666L15.34,1.612L15.477,1.56L15.614,1.508L15.752,1.457L15.89,1.407L16.028,1.358L16.167,1.31L16.306,1.262L16.445,1.215L16.585,1.169L16.726,1.124L16.866,1.08L17.007,1.036L17.149,0.994L17.291,0.952L17.433,0.911L17.575,0.871L17.718,0.832L17.861,0.794L18.005,0.756L18.149,0.72L18.293,0.684L18.438,0.649L18.583,0.615L18.728,0.582L18.874,0.55L19.019,0.518L19.166,0.488L19.312,0.458L19.459,0.43L19.606,0.402L19.754,0.375L19.902,0.349L20.05,0.324L20.198,0.3L20.347,0.277L20.496,0.254L20.645,0.233L20.795,0.213L20.945,0.193L21.095,0.174L21.246,0.157L21.397,0.14L21.548,0.124L21.699,0.109L21.851,0.095L22.002,0.082L22.155,0.07L22.307,0.059L22.46,0.049L22.613,0.04L22.766,0.031L22.919,0.024L23.073,0.018L23.227,0.012L23.381,0.008L23.535,0.004L23.69,0.002L23.845,0L24,0L24.155,0ZM23.858,2L23.715,2.002L23.573,2.004L23.432,2.007L23.29,2.011L23.149,2.016L23.008,2.022L22.867,2.029L22.727,2.036L22.586,2.045L22.446,2.054L22.307,2.064L22.167,2.075L22.028,2.087L21.889,2.1L21.75,2.114L21.611,2.128L21.473,2.144L21.335,2.16L21.198,2.177L21.06,2.195L20.923,2.214L20.786,2.233L20.65,2.254L20.513,2.275L20.377,2.297L20.241,2.32L20.106,2.344L19.971,2.369L19.836,2.394L19.701,2.42L19.567,2.447L19.433,2.475L19.299,2.504L19.166,2.533L19.033,2.564L18.9,2.595L18.768,2.627L18.636,2.659L18.504,2.693L18.372,2.727L18.241,2.762L18.11,2.798L17.98,2.835L17.85,2.872L17.72,2.911L17.59,2.95L17.461,2.989L17.332,3.03L17.204,3.071L17.075,3.113L16.948,3.156L16.82,3.2L16.693,3.244L16.566,3.289L16.44,3.335L16.314,3.382L16.188,3.429L16.063,3.477L15.938,3.526L15.813,3.576L15.689,3.626L15.565,3.677L15.441,3.729L15.318,3.782L15.196,3.835L15.073,3.889L14.951,3.944L14.83,3.999L14.709,4.055L14.588,4.112L14.467,4.17L14.348,4.228L14.228,4.287L14.109,4.347L13.99,4.407L13.872,4.468L13.754,4.53L13.636,4.593L13.519,4.656L13.403,4.72L13.286,4.784L13.17,4.849L13.055,4.915L12.94,4.982L12.826,5.049L12.712,5.117L12.598,5.186L12.485,5.255L12.372,5.325L12.26,5.395L12.148,5.467L12.037,5.539L11.926,5.611L11.815,5.684L11.705,5.758L11.596,5.833L11.487,5.908L11.378,5.984L11.27,6.06L11.162,6.137L11.055,6.215L10.948,6.293L10.842,6.372L10.737,6.452L10.631,6.532L10.527,6.613L10.422,6.694L10.319,6.776L10.216,6.859L10.113,6.942L10.011,7.026L9.909,7.11L9.808,7.195L9.707,7.281L9.607,7.367L9.507,7.454L9.408,7.541L9.31,7.629L9.212,7.718L9.114,7.807L9.017,7.897L8.921,7.987L8.825,8.078L8.73,8.169L8.635,8.261L8.541,8.354L8.447,8.447L8.354,8.541L8.261,8.635L8.169,8.73L8.078,8.825L7.987,8.921L7.897,9.017L7.807,9.114L7.718,9.212L7.629,9.31L7.541,9.408L7.454,9.507L7.367,9.607L7.281,9.707L7.195,9.808L7.11,9.909L7.026,10.011L6.942,10.113L6.859,10.216L6.776,10.319L6.694,10.422L6.613,10.527L6.532,10.631L6.452,10.737L6.372,10.842L6.293,10.948L6.215,11.055L6.137,11.162L6.06,11.27L5.984,11.378L5.908,11.487L5.833,11.596L5.758,11.705L5.684,11.815L5.611,11.926L5.539,12.037L5.467,12.148L5.395,12.26L5.325,12.372L5.255,12.485L5.186,12.598L5.117,12.712L5.049,12.826L4.982,12.94L4.915,13.055L4.849,13.17L4.784,13.286L4.72,13.403L4.656,13.519L4.593,13.636L4.53,13.754L4.468,13.872L4.407,13.99L4.347,14.109L4.287,14.228L4.228,14.348L4.17,14.467L4.112,14.588L4.055,14.709L3.999,14.83L3.944,14.951L3.889,15.073L3.835,15.196L3.782,15.318L3.729,15.441L3.677,15.565L3.626,15.689L3.576,15.813L3.526,15.938L3.477,16.063L3.429,16.188L3.382,16.314L3.335,16.44L3.289,16.566L3.244,16.693L3.2,16.82L3.156,16.948L3.113,17.075L3.071,17.204L3.03,17.332L2.989,17.461L2.95,17.59L2.911,17.72L2.872,17.85L2.835,17.98L2.798,18.11L2.762,18.241L2.727,18.372L2.693,18.504L2.659,18.636L2.627,18.768L2.595,18.9L2.564,19.033L2.533,19.166L2.504,19.299L2.475,19.433L2.447,19.567L2.42,19.701L2.394,19.836L2.369,19.971L2.344,20.106L2.32,20.241L2.297,20.377L2.275,20.513L2.254,20.65L2.233,20.786L2.214,20.923L2.195,21.06L2.177,21.198L2.16,21.335L2.144,21.473L2.128,21.611L2.114,21.75L2.1,21.889L2.087,22.028L2.075,22.167L2.064,22.307L2.054,22.446L2.045,22.586L2.036,22.727L2.029,22.867L2.022,23.008L2.016,23.149L2.011,23.29L2.007,23.432L2.004,23.573L2.002,23.715L2,23.858L2,24L2,24.142L2.002,24.285L2.004,24.427L2.007,24.568L2.011,24.71L2.016,24.851L2.022,24.992L2.029,25.133L2.036,25.273L2.045,25.414L2.054,25.554L2.064,25.693L2.075,25.833L2.087,25.972L2.1,26.111L2.114,26.25L2.128,26.389L2.144,26.527L2.16,26.665L2.177,26.802L2.195,26.94L2.214,27.077L2.233,27.214L2.254,27.35L2.275,27.487L2.297,27.623L2.32,27.759L2.344,27.894L2.369,28.029L2.394,28.164L2.42,28.299L2.447,28.433L2.475,28.567L2.504,28.701L2.533,28.834L2.564,28.967L2.595,29.1L2.627,29.232L2.659,29.364L2.693,29.496L2.727,29.628L2.762,29.759L2.798,29.89L2.835,30.02L2.872,30.15L2.911,30.28L2.95,30.41L2.989,30.539L3.03,30.668L3.071,30.796L3.113,30.925L3.156,31.052L3.2,31.18L3.244,31.307L3.289,31.434L3.335,31.56L3.382,31.686L3.429,31.812L3.477,31.937L3.526,32.062L3.576,32.187L3.626,32.311L3.677,32.435L3.729,32.559L3.782,32.682L3.835,32.804L3.889,32.927L3.944,33.049L3.999,33.17L4.055,33.291L4.112,33.412L4.17,33.533L4.228,33.652L4.287,33.772L4.347,33.891L4.407,34.01L4.468,34.128L4.53,34.246L4.593,34.364L4.656,34.481L4.72,34.597L4.784,34.714L4.849,34.83L4.915,34.945L4.982,35.06L5.049,35.174L5.117,35.288L5.186,35.402L5.255,35.515L5.325,35.628L5.395,35.74L5.467,35.852L5.539,35.963L5.611,36.074L5.684,36.185L5.758,36.295L5.833,36.404L5.908,36.513L5.984,36.622L6.06,36.73L6.137,36.838L6.215,36.945L6.293,37.052L6.372,37.158L6.452,37.263L6.532,37.369L6.613,37.473L6.694,37.578L6.776,37.681L6.859,37.784L6.942,37.887L7.026,37.989L7.11,38.091L7.195,38.192L7.281,38.293L7.367,38.393L7.454,38.493L7.541,38.592L7.629,38.69L7.718,38.788L7.807,38.886L7.897,38.983L7.987,39.079L8.078,39.175L8.169,39.27L8.261,39.365L8.354,39.459L8.447,39.553L8.541,39.646L8.635,39.739L8.73,39.831L8.825,39.922L8.921,40.013L9.017,40.103L9.114,40.193L9.212,40.282L9.31,40.371L9.408,40.459L9.507,40.546L9.607,40.633L9.707,40.719L9.808,40.805L9.909,40.89L10.011,40.974L10.113,41.058L10.215,41.141L10.319,41.224L10.422,41.306L10.527,41.387L10.631,41.468L10.737,41.548L10.842,41.628L10.948,41.707L11.055,41.785L11.162,41.863L11.27,41.94L11.378,42.016L11.487,42.092L11.596,42.167L11.705,42.242L11.815,42.316L11.926,42.389L12.037,42.461L12.148,42.533L12.26,42.605L12.372,42.675L12.485,42.745L12.598,42.814L12.712,42.883L12.826,42.951L12.94,43.018L13.055,43.085L13.17,43.151L13.286,43.216L13.403,43.28L13.519,43.344L13.636,43.407L13.754,43.47L13.872,43.532L13.99,43.593L14.109,43.653L14.228,43.713L14.348,43.772L14.467,43.83L14.588,43.888L14.709,43.945L14.83,44.001L14.951,44.056L15.073,44.111L15.196,44.165L15.318,44.218L15.441,44.271L15.565,44.323L15.689,44.374L15.813,44.424L15.938,44.474L16.063,44.523L16.188,44.571L16.314,44.618L16.44,44.665L16.566,44.711L16.693,44.756L16.82,44.8L16.948,44.844L17.075,44.887L17.204,44.929L17.332,44.97L17.461,45.011L17.59,45.05L17.72,45.089L17.85,45.128L17.98,45.165L18.11,45.202L18.241,45.238L18.372,45.273L18.504,45.307L18.636,45.341L18.768,45.373L18.9,45.405L19.033,45.436L19.166,45.467L19.299,45.496L19.433,45.525L19.567,45.553L19.701,45.58L19.836,45.606L19.971,45.631L20.106,45.656L20.241,45.68L20.377,45.703L20.513,45.725L20.65,45.746L20.786,45.767L20.923,45.786L21.06,45.805L21.198,45.823L21.335,45.84L21.473,45.856L21.611,45.872L21.75,45.886L21.889,45.9L22.028,45.913L22.167,45.925L22.307,45.936L22.446,45.946L22.586,45.955L22.727,45.964L22.867,45.971L23.008,45.978L23.149,45.984L23.29,45.989L23.432,45.993L23.573,45.996L23.715,45.998L23.858,46L24,46L24.142,46L24.285,45.998L24.427,45.996L24.568,45.993L24.71,45.989L24.851,45.984L24.992,45.978L25.133,45.971L25.273,45.964L25.414,45.955L25.554,45.946L25.693,45.936L25.833,45.925L25.972,45.913L26.111,45.9L26.25,45.886L26.389,45.872L26.527,45.856L26.665,45.84L26.802,45.823L26.94,45.805L27.077,45.786L27.214,45.767L27.35,45.746L27.487,45.725L27.623,45.703L27.759,45.68L27.894,45.656L28.029,45.631L28.164,45.606L28.299,45.58L28.433,45.553L28.567,45.525L28.701,45.496L28.834,45.467L28.967,45.436L29.1,45.405L29.232,45.373L29.364,45.341L29.496,45.307L29.628,45.273L29.759,45.238L29.89,45.202L30.02,45.165L30.15,45.128L30.28,45.089L30.41,45.05L30.539,45.011L30.668,44.97L30.796,44.929L30.925,44.887L31.052,44.844L31.18,44.8L31.307,44.756L31.434,44.711L31.56,44.665L31.686,44.618L31.812,44.571L31.937,44.523L32.062,44.474L32.187,44.424L32.311,44.374L32.435,44.323L32.559,44.271L32.682,44.218L32.804,44.165L32.927,44.111L33.049,44.056L33.17,44.001L33.291,43.945L33.412,43.888L33.533,43.83L33.652,43.772L33.772,43.713L33.891,43.653L34.01,43.593L34.128,43.532L34.246,43.47L34.364,43.407L34.481,43.344L34.597,43.28L34.714,43.216L34.83,43.151L34.945,43.085L35.06,43.018L35.174,42.951L35.288,42.883L35.402,42.814L35.515,42.745L35.628,42.675L35.74,42.605L35.852,42.533L35.963,42.461L36.074,42.389L36.185,42.316L36.295,42.242L36.404,42.167L36.513,42.092L36.622,42.016L36.73,41.94L36.838,41.863L36.945,41.785L37.052,41.707L37.158,41.628L37.263,41.548L37.369,41.468L37.473,41.387L37.578,41.306L37.681,41.224L37.785,41.141L37.887,41.058L37.989,40.974L38.091,40.89L38.192,40.805L38.293,40.719L38.393,40.633L38.493,40.546L38.592,40.459L38.69,40.371L38.788,40.282L38.886,40.193L38.983,40.103L39.079,40.013L39.175,39.922L39.27,39.831L39.365,39.739L39.459,39.646L39.553,39.553L39.646,39.459L39.739,39.365L39.831,39.27L39.922,39.175L40.013,39.079L40.103,38.983L40.193,38.886L40.282,38.788L40.371,38.69L40.459,38.592L40.546,38.493L40.633,38.393L40.719,38.293L40.805,38.192L40.89,38.091L40.974,37.989L41.058,37.887L41.141,37.785L41.224,37.681L41.306,37.578L41.387,37.473L41.468,37.369L41.548,37.263L41.628,37.158L41.707,37.052L41.785,36.945L41.863,36.838L41.94,36.73L42.016,36.622L42.092,36.513L42.167,36.404L42.242,36.295L42.316,36.185L42.389,36.074L42.461,35.963L42.533,35.852L42.605,35.74L42.675,35.628L42.745,35.515L42.814,35.402L42.883,35.288L42.951,35.174L43.018,35.06L43.085,34.945L43.151,34.83L43.216,34.714L43.28,34.597L43.344,34.481L43.407,34.364L43.47,34.246L43.532,34.128L43.593,34.01L43.653,33.891L43.713,33.772L43.772,33.652L43.83,33.533L43.888,33.412L43.945,33.291L44.001,33.17L44.056,33.049L44.111,32.927L44.165,32.804L44.218,32.682L44.271,32.559L44.323,32.435L44.374,32.311L44.424,32.187L44.474,32.062L44.523,31.937L44.571,31.812L44.618,31.686L44.665,31.56L44.711,31.434L44.756,31.307L44.8,31.18L44.844,31.052L44.887,30.925L44.929,30.796L44.97,30.668L45.011,30.539L45.05,30.41L45.089,30.28L45.128,30.15L45.165,30.02L45.202,29.89L45.238,29.759L45.273,29.628L45.307,29.496L45.341,29.364L45.373,29.232L45.405,29.1L45.436,28.967L45.467,28.834L45.496,28.701L45.525,28.567L45.553,28.433L45.58,28.299L45.606,28.164L45.631,28.029L45.656,27.894L45.68,27.759L45.703,27.623L45.725,27.487L45.746,27.35L45.767,27.214L45.786,27.077L45.805,26.94L45.823,26.802L45.84,26.665L45.856,26.527L45.872,26.389L45.886,26.25L45.9,26.111L45.913,25.972L45.925,25.833L45.936,25.693L45.946,25.554L45.955,25.414L45.964,25.273L45.971,25.133L45.978,24.992L45.984,24.851L45.989,24.71L45.993,24.568L45.996,24.427L45.998,24.285L46,24.142L46,24L46,23.858L45.998,23.715L45.996,23.573L45.993,23.432L45.989,23.29L45.984,23.149L45.978,23.008L45.971,22.867L45.964,22.727L45.955,22.586L45.946,22.446L45.936,22.307L45.925,22.167L45.913,22.028L45.9,21.889L45.886,21.75L45.872,21.611L45.856,21.473L45.84,21.335L45.823,21.198L45.805,21.06L45.786,20.923L45.767,20.786L45.746,20.65L45.725,20.513L45.703,20.377L45.68,20.241L45.656,20.106L45.631,19.971L45.606,19.836L45.58,19.701L45.553,19.567L45.525,19.433L45.496,19.299L45.467,19.166L45.436,19.033L45.405,18.9L45.373,18.768L45.341,18.636L45.307,18.504L45.273,18.372L45.238,18.241L45.202,18.11L45.165,17.98L45.128,17.85L45.089,17.72L45.05,17.59L45.011,17.461L44.97,17.332L44.929,17.204L44.887,17.075L44.844,16.948L44.8,16.82L44.756,16.693L44.711,16.566L44.665,16.44L44.618,16.314L44.571,16.188L44.523,16.063L44.474,15.938L44.424,15.813L44.374,15.689L44.323,15.565L44.271,15.441L44.218,15.318L44.165,15.196L44.111,15.073L44.056,14.951L44.001,14.83L43.945,14.709L43.888,14.588L43.83,14.467L43.772,14.348L43.713,14.228L43.653,14.109L43.593,13.99L43.532,13.872L43.47,13.754L43.407,13.636L43.344,13.519L43.28,13.403L43.216,13.286L43.151,13.17L43.085,13.055L43.018,12.94L42.951,12.826L42.883,12.712L42.814,12.598L42.745,12.485L42.675,12.372L42.605,12.26L42.533,12.148L42.461,12.037L42.389,11.926L42.316,11.815L42.242,11.705L42.167,11.596L42.092,11.487L42.016,11.378L41.94,11.27L41.863,11.162L41.785,11.055L41.707,10.948L41.628,10.842L41.548,10.737L41.468,10.631L41.387,10.527L41.306,10.422L41.224,10.319L41.141,10.215L41.058,10.113L40.974,10.011L40.89,9.909L40.805,9.808L40.719,9.707L40.633,9.607L40.546,9.507L40.459,9.408L40.371,9.31L40.282,9.212L40.193,9.114L40.103,9.017L40.013,8.921L39.922,8.825L39.831,8.73L39.739,8.635L39.646,8.541L39.553,8.447L39.459,8.354L39.365,8.261L39.27,8.169L39.175,8.078L39.079,7.987L38.983,7.897L38.886,7.807L38.788,7.718L38.69,7.629L38.592,7.541L38.493,7.454L38.393,7.367L38.293,7.281L38.192,7.195L38.091,7.11L37.989,7.026L37.887,6.942L37.784,6.859L37.681,6.776L37.578,6.694L37.473,6.613L37.369,6.532L37.263,6.452L37.158,6.372L37.052,6.293L36.945,6.215L36.838,6.137L36.73,6.06L36.622,5.984L36.513,5.908L36.404,5.833L36.295,5.758L36.185,5.684L36.074,5.611L35.963,5.539L35.852,5.467L35.74,5.395L35.628,5.325L35.515,5.255L35.402,5.186L35.288,5.117L35.174,5.049L35.06,4.982L34.945,4.915L34.83,4.849L34.714,4.784L34.597,4.72L34.481,4.656L34.364,4.593L34.246,4.53L34.128,4.468L34.01,4.407L33.891,4.347L33.772,4.287L33.652,4.228L33.533,4.17L33.412,4.112L33.291,4.055L33.17,3.999L33.049,3.944L32.927,3.889L32.804,3.835L32.682,3.782L32.559,3.729L32.435,3.677L32.311,3.626L32.187,3.576L32.062,3.526L31.937,3.477L31.812,3.429L31.686,3.382L31.56,3.335L31.434,3.289L31.307,3.244L31.18,3.2L31.052,3.156L30.925,3.113L30.796,3.071L30.668,3.03L30.539,2.989L30.41,2.95L30.28,2.911L30.15,2.872L30.02,2.835L29.89,2.798L29.759,2.762L29.628,2.727L29.496,2.693L29.364,2.659L29.232,2.627L29.1,2.595L28.967,2.564L28.834,2.533L28.701,2.504L28.567,2.475L28.433,2.447L28.299,2.42L28.164,2.394L28.029,2.369L27.894,2.344L27.759,2.32L27.623,2.297L27.487,2.275L27.35,2.254L27.214,2.233L27.077,2.214L26.94,2.195L26.802,2.177L26.665,2.16L26.527,2.144L26.389,2.128L26.25,2.114L26.111,2.1L25.972,2.087L25.833,2.075L25.693,2.064L25.554,2.054L25.414,2.045L25.273,2.036L25.133,2.029L24.992,2.022L24.851,2.016L24.71,2.011L24.568,2.007L24.427,2.004L24.285,2.002L24.142,2L24,2L23.858,2Z" style="fill:#fff;"/><path id="eye" d="M24.227,10.961L24.454,10.964L24.68,10.968L24.907,10.974L25.133,10.982L25.358,10.992L25.584,11.004L25.809,11.017L26.034,11.032L26.258,11.049L26.482,11.068L26.706,11.088L26.929,11.11L27.153,11.134L27.375,11.16L27.598,11.187L27.82,11.216L28.041,11.247L28.262,11.279L28.483,11.313L28.703,11.349L28.923,11.386L29.143,11.426L29.362,11.467L29.58,11.509L29.799,11.553L30.016,11.599L30.233,11.647L30.45,11.696L30.666,11.747L30.882,11.8L31.097,11.854L31.312,11.91L31.526,11.967L31.739,12.026L31.952,12.087L32.165,12.15L32.377,12.214L32.588,12.279L32.799,12.346L33.009,12.415L33.218,12.486L33.427,12.558L33.635,12.631L33.843,12.707L34.05,12.783L34.256,12.862L34.462,12.942L34.667,13.023L34.871,13.106L35.075,13.191L35.278,13.277L35.48,13.365L35.682,13.454L35.883,13.545L36.083,13.637L36.282,13.731L36.481,13.826L36.679,13.923L36.876,14.022L37.072,14.122L37.268,14.223L37.462,14.326L37.656,14.43L37.849,14.536L38.042,14.644L38.233,14.752L38.424,14.863L38.614,14.975L38.803,15.088L38.991,15.203L39.178,15.319L39.364,15.436L39.55,15.555L39.734,15.676L39.918,15.798L40.101,15.921L40.283,16.046L40.464,16.172L40.643,16.3L40.822,16.429L41.001,16.56L41.178,16.691L41.354,16.825L41.529,16.959L41.703,17.095L41.876,17.233L42.048,17.372L42.219,17.512L42.389,17.653L42.558,17.796L42.726,17.941L42.893,18.086L43.059,18.233L43.224,18.382L43.387,18.531L43.55,18.682L43.711,18.835L43.872,18.988L44.031,19.143L44.189,19.3L44.346,19.457L44.502,19.616L44.657,19.776L44.81,19.938L44.962,20.101L45.114,20.265L45.264,20.43L45.412,20.597L45.56,20.765L45.706,20.934L45.851,21.104L45.995,21.276L46.138,21.449L46.279,21.623L46.419,21.798L46.558,21.975L46.696,22.153L46.832,22.332L46.967,22.513L47.101,22.694L47.233,22.877L47.364,23.061L47.494,23.246L47.622,23.433L47.749,23.62L47.875,23.809L48,24L47.999,24.001L47.875,24.191L47.749,24.38L47.622,24.567L47.494,24.754L47.364,24.939L47.233,25.123L47.101,25.306L46.967,25.487L46.832,25.668L46.696,25.847L46.558,26.025L46.419,26.202L46.279,26.377L46.138,26.551L45.995,26.724L45.851,26.896L45.706,27.066L45.56,27.235L45.412,27.403L45.264,27.57L45.114,27.735L44.962,27.899L44.81,28.062L44.657,28.224L44.502,28.384L44.346,28.543L44.189,28.7L44.031,28.857L43.872,29.012L43.711,29.165L43.55,29.318L43.387,29.469L43.224,29.618L43.059,29.767L42.893,29.914L42.726,30.059L42.558,30.204L42.389,30.347L42.219,30.488L42.048,30.628L41.876,30.767L41.703,30.905L41.529,31.041L41.354,31.175L41.178,31.309L41.001,31.44L40.822,31.571L40.643,31.7L40.464,31.828L40.283,31.954L40.101,32.079L39.918,32.202L39.734,32.324L39.55,32.445L39.364,32.564L39.178,32.681L38.991,32.797L38.803,32.912L38.614,33.025L38.424,33.137L38.233,33.248L38.042,33.356L37.849,33.464L37.656,33.57L37.462,33.674L37.268,33.777L37.072,33.878L36.876,33.978L36.679,34.077L36.481,34.174L36.282,34.269L36.083,34.363L35.883,34.455L35.682,34.546L35.48,34.635L35.278,34.723L35.075,34.809L34.871,34.894L34.667,34.977L34.462,35.058L34.256,35.138L34.05,35.217L33.843,35.293L33.635,35.369L33.427,35.442L33.218,35.514L33.009,35.585L32.799,35.654L32.588,35.721L32.377,35.786L32.165,35.85L31.952,35.913L31.739,35.974L31.526,36.033L31.312,36.09L31.097,36.146L30.882,36.2L30.666,36.253L30.45,36.304L30.233,36.353L30.016,36.401L29.799,36.447L29.58,36.491L29.362,36.533L29.143,36.574L28.923,36.614L28.703,36.651L28.483,36.687L28.262,36.721L28.041,36.753L27.82,36.784L27.598,36.813L27.375,36.84L27.153,36.866L26.929,36.89L26.706,36.912L26.482,36.932L26.258,36.951L26.034,36.968L25.809,36.983L25.584,36.996L25.358,37.008L25.133,37.018L24.907,37.026L24.68,37.032L24.454,37.036L24.227,37.039L24,37.04L23.773,37.039L23.546,37.036L23.32,37.032L23.093,37.026L22.867,37.018L22.642,37.008L22.416,36.996L22.191,36.983L21.966,36.968L21.742,36.951L21.518,36.932L21.294,36.912L21.071,36.89L20.847,36.866L20.625,36.84L20.402,36.813L20.18,36.784L19.959,36.753L19.738,36.721L19.517,36.687L19.297,36.651L19.077,36.614L18.857,36.574L18.638,36.533L18.42,36.491L18.201,36.447L17.984,36.401L17.767,36.353L17.55,36.304L17.334,36.253L17.118,36.2L16.903,36.146L16.688,36.09L16.474,36.033L16.261,35.974L16.048,35.913L15.835,35.85L15.623,35.786L15.412,35.721L15.201,35.654L14.991,35.585L14.782,35.514L14.573,35.442L14.365,35.369L14.157,35.293L13.95,35.217L13.744,35.138L13.538,35.058L13.333,34.977L13.129,34.894L12.925,34.809L12.722,34.723L12.52,34.635L12.318,34.546L12.117,34.455L11.917,34.363L11.718,34.269L11.519,34.174L11.321,34.077L11.124,33.978L10.928,33.878L10.732,33.777L10.538,33.674L10.344,33.57L10.151,33.464L9.958,33.356L9.767,33.248L9.576,33.137L9.386,33.025L9.197,32.912L9.009,32.797L8.822,32.681L8.636,32.564L8.45,32.445L8.266,32.324L8.082,32.202L7.899,32.079L7.717,31.954L7.536,31.828L7.357,31.7L7.178,31.571L6.999,31.44L6.822,31.309L6.646,31.175L6.471,31.041L6.297,30.905L6.124,30.767L5.952,30.628L5.781,30.488L5.611,30.347L5.442,30.204L5.274,30.059L5.107,29.914L4.941,29.767L4.776,29.618L4.613,29.469L4.45,29.318L4.289,29.165L4.128,29.012L3.969,28.857L3.811,28.7L3.654,28.543L3.498,28.384L3.343,28.224L3.19,28.062L3.038,27.899L2.886,27.735L2.736,27.57L2.588,27.403L2.44,27.235L2.294,27.066L2.149,26.896L2.005,26.724L1.862,26.551L1.721,26.377L1.581,26.202L1.442,26.025L1.304,25.847L1.168,25.668L1.033,25.487L0.899,25.306L0.767,25.123L0.636,24.939L0.506,24.754L0.378,24.567L0.251,24.38L0.125,24.191L0.001,24.001L0,24L0.001,23.999L0.125,23.809L0.251,23.62L0.378,23.433L0.506,23.246L0.636,23.061L0.767,22.877L0.899,22.694L1.033,22.513L1.168,22.332L1.304,22.153L1.442,21.975L1.581,21.798L1.721,21.623L1.862,21.449L2.005,21.276L2.149,21.104L2.294,20.934L2.44,20.765L2.588,20.597L2.736,20.43L2.886,20.265L3.038,20.101L3.19,19.938L3.343,19.776L3.498,19.616L3.654,19.457L3.811,19.3L3.969,19.143L4.128,18.988L4.289,18.835L4.45,18.682L4.613,18.531L4.776,18.382L4.941,18.233L5.107,18.086L5.274,17.941L5.442,17.796L5.611,17.653L5.781,17.512L5.952,17.372L6.124,17.233L6.297,17.095L6.471,16.959L6.646,16.825L6.822,16.691L6.999,16.56L7.178,16.429L7.357,16.3L7.536,16.172L7.717,16.046L7.899,15.921L8.082,15.798L8.266,15.676L8.45,15.555L8.636,15.436L8.822,15.319L9.009,15.203L9.197,15.088L9.386,14.975L9.576,14.863L9.767,14.752L9.958,14.644L10.151,14.536L10.344,14.43L10.538,14.326L10.732,14.223L10.928,14.122L11.124,14.022L11.321,13.923L11.519,13.826L11.718,13.731L11.917,13.637L12.117,13.545L12.318,13.454L12.52,13.365L12.722,13.277L12.925,13.191L13.129,13.106L13.333,13.023L13.538,12.942L13.744,12.862L13.95,12.783L14.157,12.707L14.365,12.631L14.573,12.558L14.782,12.486L14.991,12.415L15.201,12.346L15.412,12.279L15.623,12.214L15.835,12.15L16.048,12.087L16.261,12.026L16.474,11.967L16.688,11.91L16.903,11.854L17.118,11.8L17.334,11.747L17.55,11.696L17.767,11.647L17.984,11.599L18.201,11.553L18.42,11.509L18.638,11.467L18.857,11.426L19.077,11.386L19.297,11.349L19.517,11.313L19.738,11.279L19.959,11.247L20.18,11.216L20.402,11.187L20.625,11.16L20.847,11.134L21.071,11.11L21.294,11.088L21.518,11.068L21.742,11.049L21.966,11.032L22.191,11.017L22.416,11.004L22.642,10.992L22.867,10.982L23.093,10.974L23.32,10.968L23.546,10.964L23.773,10.961L24,10.96L24.227,10.961ZM23.789,12.961L23.578,12.963L23.367,12.968L23.157,12.973L22.946,12.981L22.736,12.99L22.527,13.001L22.317,13.013L22.108,13.027L21.9,13.043L21.691,13.06L21.483,13.079L21.275,13.1L21.068,13.122L20.861,13.146L20.654,13.171L20.447,13.198L20.241,13.227L20.036,13.257L19.83,13.288L19.625,13.322L19.421,13.357L19.217,13.393L19.013,13.431L18.81,13.471L18.607,13.512L18.404,13.555L18.202,13.599L18.001,13.645L17.8,13.692L17.599,13.741L17.399,13.791L17.2,13.843L17.001,13.897L16.802,13.952L16.604,14.008L16.406,14.066L16.209,14.126L16.013,14.187L15.817,14.249L15.621,14.314L15.426,14.379L15.232,14.446L15.038,14.514L14.845,14.584L14.653,14.656L14.461,14.729L14.27,14.803L14.079,14.879L13.889,14.956L13.699,15.035L13.511,15.115L13.322,15.197L13.135,15.28L12.948,15.364L12.762,15.45L12.577,15.537L12.392,15.626L12.208,15.716L12.025,15.808L11.842,15.901L11.66,15.995L11.479,16.091L11.298,16.188L11.119,16.286L10.94,16.386L10.762,16.487L10.584,16.59L10.408,16.694L10.232,16.799L10.057,16.906L9.883,17.014L9.71,17.124L9.537,17.234L9.366,17.346L9.195,17.46L9.025,17.575L8.856,17.691L8.687,17.808L8.52,17.927L8.354,18.047L8.188,18.168L8.023,18.291L7.859,18.415L7.697,18.54L7.535,18.667L7.374,18.794L7.214,18.924L7.055,19.054L6.896,19.186L6.739,19.319L6.583,19.453L6.428,19.588L6.274,19.725L6.12,19.863L5.968,20.002L5.817,20.142L5.667,20.284L5.518,20.427L5.37,20.571L5.222,20.716L5.076,20.863L4.932,21.011L4.788,21.16L4.645,21.31L4.503,21.461L4.363,21.614L4.223,21.768L4.085,21.923L3.948,22.079L3.812,22.236L3.677,22.395L3.543,22.554L3.41,22.715L3.279,22.877L3.148,23.04L3.019,23.205L2.891,23.37L2.764,23.537L2.639,23.705L2.514,23.874L2.423,24L2.514,24.126L2.639,24.295L2.764,24.463L2.891,24.63L3.019,24.795L3.148,24.96L3.279,25.123L3.41,25.285L3.543,25.446L3.677,25.605L3.812,25.764L3.948,25.921L4.085,26.077L4.223,26.232L4.363,26.386L4.503,26.539L4.645,26.69L4.788,26.84L4.932,26.989L5.076,27.137L5.222,27.284L5.37,27.429L5.518,27.573L5.667,27.716L5.817,27.858L5.968,27.998L6.12,28.137L6.274,28.275L6.428,28.412L6.583,28.547L6.739,28.681L6.896,28.814L7.055,28.946L7.214,29.076L7.374,29.206L7.535,29.333L7.697,29.46L7.859,29.585L8.023,29.709L8.188,29.832L8.354,29.953L8.52,30.073L8.687,30.192L8.856,30.309L9.025,30.425L9.195,30.54L9.366,30.654L9.537,30.766L9.71,30.876L9.883,30.986L10.057,31.094L10.232,31.201L10.408,31.306L10.584,31.41L10.762,31.513L10.94,31.614L11.119,31.714L11.298,31.812L11.479,31.909L11.66,32.005L11.842,32.099L12.025,32.192L12.208,32.284L12.392,32.374L12.577,32.463L12.762,32.55L12.948,32.636L13.135,32.72L13.322,32.803L13.511,32.885L13.699,32.965L13.889,33.044L14.079,33.121L14.27,33.197L14.461,33.271L14.653,33.344L14.845,33.416L15.038,33.486L15.232,33.554L15.426,33.621L15.621,33.686L15.817,33.751L16.013,33.813L16.209,33.874L16.406,33.934L16.604,33.992L16.802,34.048L17.001,34.103L17.2,34.157L17.399,34.209L17.599,34.259L17.8,34.308L18.001,34.355L18.202,34.401L18.404,34.445L18.607,34.488L18.81,34.529L19.013,34.569L19.217,34.607L19.421,34.643L19.625,34.678L19.83,34.712L20.036,34.743L20.241,34.773L20.447,34.802L20.654,34.829L20.861,34.854L21.068,34.878L21.275,34.9L21.483,34.921L21.691,34.94L21.9,34.957L22.108,34.973L22.317,34.987L22.527,34.999L22.736,35.01L22.946,35.019L23.157,35.027L23.367,35.032L23.578,35.037L23.789,35.039L24,35.04L24.211,35.039L24.422,35.037L24.633,35.032L24.843,35.027L25.054,35.019L25.264,35.01L25.473,34.999L25.683,34.987L25.892,34.973L26.1,34.957L26.309,34.94L26.517,34.921L26.725,34.9L26.932,34.878L27.139,34.854L27.346,34.829L27.553,34.802L27.759,34.773L27.964,34.743L28.17,34.712L28.375,34.678L28.579,34.643L28.783,34.607L28.987,34.569L29.19,34.529L29.393,34.488L29.596,34.445L29.798,34.401L29.999,34.355L30.2,34.308L30.401,34.259L30.601,34.209L30.8,34.157L30.999,34.103L31.198,34.048L31.396,33.992L31.594,33.934L31.791,33.874L31.987,33.813L32.183,33.751L32.379,33.686L32.574,33.621L32.768,33.554L32.962,33.486L33.155,33.416L33.347,33.344L33.539,33.271L33.73,33.197L33.921,33.121L34.111,33.044L34.301,32.965L34.489,32.885L34.678,32.803L34.865,32.72L35.052,32.636L35.238,32.55L35.423,32.463L35.608,32.374L35.792,32.284L35.975,32.192L36.158,32.099L36.34,32.005L36.521,31.909L36.702,31.812L36.881,31.714L37.06,31.614L37.238,31.513L37.416,31.41L37.592,31.306L37.768,31.201L37.943,31.094L38.117,30.986L38.29,30.876L38.463,30.766L38.634,30.654L38.805,30.54L38.975,30.425L39.144,30.309L39.313,30.192L39.48,30.073L39.646,29.953L39.812,29.832L39.977,29.709L40.141,29.585L40.303,29.46L40.465,29.333L40.626,29.206L40.786,29.076L40.945,28.946L41.104,28.814L41.261,28.681L41.417,28.547L41.572,28.412L41.726,28.275L41.88,28.137L42.032,27.998L42.183,27.858L42.333,27.716L42.482,27.573L42.63,27.429L42.778,27.284L42.924,27.137L43.068,26.989L43.212,26.84L43.355,26.69L43.497,26.539L43.637,26.386L43.777,26.232L43.915,26.077L44.052,25.921L44.188,25.764L44.323,25.605L44.457,25.446L44.59,25.285L44.721,25.123L44.852,24.96L44.981,24.795L45.109,24.63L45.236,24.463L45.361,24.295L45.486,24.126L45.577,24L45.486,23.874L45.361,23.705L45.236,23.537L45.109,23.37L44.981,23.205L44.852,23.04L44.721,22.877L44.59,22.715L44.457,22.554L44.323,22.395L44.188,22.236L44.052,22.079L43.915,21.923L43.777,21.768L43.637,21.614L43.497,21.461L43.355,21.31L43.212,21.16L43.068,21.011L42.924,20.863L42.778,20.716L42.63,20.571L42.482,20.427L42.333,20.284L42.183,20.142L42.032,20.002L41.88,19.863L41.726,19.725L41.572,19.588L41.417,19.453L41.261,19.319L41.104,19.186L40.945,19.054L40.786,18.924L40.626,18.794L40.465,18.667L40.303,18.54L40.141,18.415L39.977,18.291L39.812,18.168L39.646,18.047L39.48,17.927L39.313,17.808L39.144,17.691L38.975,17.575L38.805,17.46L38.634,17.346L38.463,17.234L38.29,17.124L38.117,17.014L37.943,16.906L37.768,16.799L37.592,16.694L37.416,16.59L37.238,16.487L37.06,16.386L36.881,16.286L36.702,16.188L36.521,16.091L36.34,15.995L36.158,15.901L35.975,15.808L35.792,15.716L35.608,15.626L35.423,15.537L35.238,15.45L35.052,15.364L34.865,15.28L34.678,15.197L34.489,15.115L34.301,15.035L34.111,14.956L33.921,14.879L33.73,14.803L33.539,14.729L33.347,14.656L33.155,14.584L32.962,14.514L32.768,14.446L32.574,14.379L32.379,14.314L32.183,14.249L31.987,14.187L31.791,14.126L31.594,14.066L31.396,14.008L31.198,13.952L30.999,13.897L30.8,13.843L30.601,13.791L30.401,13.741L30.2,13.692L29.999,13.645L29.798,13.599L29.596,13.555L29.393,13.512L29.19,13.471L28.987,13.431L28.783,13.393L28.579,13.357L28.375,13.322L28.17,13.288L27.964,13.257L27.759,13.227L27.553,13.198L27.346,13.171L27.139,13.146L26.932,13.122L26.725,13.1L26.517,13.079L26.309,13.06L26.1,13.043L25.892,13.027L25.683,13.013L25.473,13.001L25.264,12.99L25.054,12.981L24.843,12.973L24.633,12.968L24.422,12.963L24.211,12.961L24,12.96L23.789,12.961Z" style="fill:#fff;"/><path id="iris" d="M24.168,11.001L24.335,11.004L24.502,11.01L24.669,11.017L24.834,11.026L25,11.038L25.164,11.052L25.328,11.067L25.492,11.085L25.655,11.105L25.817,11.126L25.979,11.15L26.14,11.176L26.3,11.203L26.46,11.233L26.619,11.264L26.777,11.298L26.934,11.333L27.091,11.37L27.247,11.41L27.403,11.451L27.557,11.494L27.711,11.538L27.864,11.585L28.016,11.633L28.168,11.684L28.318,11.736L28.468,11.789L28.617,11.845L28.765,11.902L28.912,11.961L29.058,12.022L29.203,12.085L29.348,12.149L29.491,12.215L29.634,12.283L29.776,12.352L29.916,12.423L30.056,12.496L30.194,12.57L30.332,12.646L30.469,12.723L30.604,12.802L30.739,12.883L30.872,12.965L31.005,13.049L31.136,13.135L31.266,13.221L31.395,13.31L31.523,13.4L31.65,13.491L31.776,13.584L31.901,13.678L32.024,13.774L32.146,13.871L32.267,13.97L32.387,14.07L32.506,14.172L32.623,14.275L32.739,14.379L32.854,14.484L32.967,14.591L33.08,14.7L33.191,14.809L33.3,14.92L33.409,15.033L33.516,15.146L33.621,15.261L33.725,15.377L33.828,15.494L33.93,15.613L34.03,15.733L34.129,15.854L34.226,15.976L34.322,16.099L34.416,16.224L34.509,16.35L34.6,16.477L34.69,16.605L34.779,16.734L34.865,16.864L34.951,16.995L35.035,17.128L35.117,17.261L35.198,17.396L35.277,17.531L35.354,17.668L35.43,17.806L35.504,17.944L35.577,18.084L35.648,18.224L35.717,18.366L35.785,18.509L35.851,18.652L35.915,18.797L35.978,18.942L36.039,19.088L36.098,19.235L36.155,19.383L36.211,19.532L36.264,19.682L36.316,19.832L36.367,19.984L36.415,20.136L36.462,20.289L36.506,20.443L36.549,20.597L36.59,20.753L36.63,20.909L36.667,21.066L36.702,21.223L36.736,21.381L36.767,21.54L36.797,21.7L36.824,21.86L36.85,22.021L36.874,22.183L36.895,22.345L36.915,22.508L36.933,22.672L36.948,22.836L36.962,23L36.974,23.166L36.983,23.331L36.99,23.498L36.996,23.665L36.999,23.832L37,24L36.999,24.168L36.996,24.335L36.99,24.502L36.983,24.669L36.974,24.834L36.962,25L36.948,25.164L36.933,25.328L36.915,25.492L36.895,25.655L36.874,25.817L36.85,25.979L36.824,26.14L36.797,26.3L36.767,26.46L36.736,26.619L36.702,26.777L36.667,26.934L36.63,27.091L36.59,27.247L36.549,27.403L36.506,27.557L36.462,27.711L36.415,27.864L36.367,28.016L36.316,28.168L36.264,28.318L36.211,28.468L36.155,28.617L36.098,28.765L36.039,28.912L35.978,29.058L35.915,29.203L35.851,29.348L35.785,29.491L35.717,29.634L35.648,29.776L35.577,29.916L35.504,30.056L35.43,30.194L35.354,30.332L35.277,30.469L35.198,30.604L35.117,30.739L35.035,30.872L34.951,31.005L34.865,31.136L34.779,31.266L34.69,31.395L34.6,31.523L34.509,31.65L34.416,31.776L34.322,31.901L34.226,32.024L34.129,32.146L34.03,32.267L33.93,32.387L33.828,32.506L33.725,32.623L33.621,32.739L33.516,32.854L33.409,32.967L33.3,33.08L33.191,33.191L33.08,33.3L32.967,33.409L32.854,33.516L32.739,33.621L32.623,33.725L32.506,33.828L32.387,33.93L32.267,34.03L32.146,34.129L32.024,34.226L31.901,34.322L31.776,34.416L31.65,34.509L31.523,34.6L31.395,34.69L31.266,34.779L31.136,34.865L31.005,34.951L30.872,35.035L30.739,35.117L30.604,35.198L30.469,35.277L30.332,35.354L30.194,35.43L30.056,35.504L29.916,35.577L29.776,35.648L29.634,35.717L29.491,35.785L29.348,35.851L29.203,35.915L29.058,35.978L28.912,36.039L28.765,36.098L28.617,36.155L28.468,36.211L28.318,36.264L28.168,36.316L28.016,36.367L27.864,36.415L27.711,36.462L27.557,36.506L27.403,36.549L27.247,36.59L27.091,36.63L26.934,36.667L26.777,36.702L26.619,36.736L26.46,36.767L26.3,36.797L26.14,36.824L25.979,36.85L25.817,36.874L25.655,36.895L25.492,36.915L25.328,36.933L25.164,36.948L25,36.962L24.834,36.974L24.669,36.983L24.502,36.99L24.335,36.996L24.168,36.999L24,37L23.832,36.999L23.665,36.996L23.498,36.99L23.331,36.983L23.166,36.974L23,36.962L22.836,36.948L22.672,36.933L22.508,36.915L22.345,36.895L22.183,36.874L22.021,36.85L21.86,36.824L21.7,36.797L21.54,36.767L21.381,36.736L21.223,36.702L21.066,36.667L20.909,36.63L20.753,36.59L20.597,36.549L20.443,36.506L20.289,36.462L20.136,36.415L19.984,36.367L19.832,36.316L19.682,36.264L19.532,36.211L19.383,36.155L19.235,36.098L19.088,36.039L18.942,35.978L18.797,35.915L18.652,35.851L18.509,35.785L18.366,35.717L18.224,35.648L18.084,35.577L17.944,35.504L17.806,35.43L17.668,35.354L17.531,35.277L17.396,35.198L17.261,35.117L17.128,35.035L16.995,34.951L16.864,34.865L16.734,34.779L16.605,34.69L16.477,34.6L16.35,34.509L16.224,34.416L16.099,34.322L15.976,34.226L15.854,34.129L15.733,34.03L15.613,33.93L15.494,33.828L15.377,33.725L15.261,33.621L15.146,33.516L15.033,33.409L14.92,33.3L14.809,33.191L14.7,33.08L14.591,32.967L14.484,32.854L14.379,32.739L14.275,32.623L14.172,32.506L14.07,32.387L13.97,32.267L13.871,32.146L13.774,32.024L13.678,31.901L13.584,31.776L13.491,31.65L13.4,31.523L13.31,31.395L13.221,31.266L13.135,31.136L13.049,31.005L12.965,30.872L12.883,30.739L12.802,30.604L12.723,30.469L12.646,30.332L12.57,30.194L12.496,30.056L12.423,29.916L12.352,29.776L12.283,29.634L12.215,29.491L12.149,29.348L12.085,29.203L12.022,29.058L11.961,28.912L11.902,28.765L11.845,28.617L11.789,28.468L11.736,28.318L11.684,28.168L11.633,28.016L11.585,27.864L11.538,27.711L11.494,27.557L11.451,27.403L11.41,27.247L11.37,27.091L11.333,26.934L11.298,26.777L11.264,26.619L11.233,26.46L11.203,26.3L11.176,26.14L11.15,25.979L11.126,25.817L11.105,25.655L11.085,25.492L11.067,25.328L11.052,25.164L11.038,25L11.026,24.834L11.017,24.669L11.01,24.502L11.004,24.335L11.001,24.168L11,24L11.001,23.832L11.004,23.665L11.01,23.498L11.017,23.331L11.026,23.166L11.038,23L11.052,22.836L11.067,22.672L11.085,22.508L11.105,22.345L11.126,22.183L11.15,22.021L11.176,21.86L11.203,21.7L11.233,21.54L11.264,21.381L11.298,21.223L11.333,21.066L11.37,20.909L11.41,20.753L11.451,20.597L11.494,20.443L11.538,20.289L11.585,20.136L11.633,19.984L11.684,19.832L11.736,19.682L11.789,19.532L11.845,19.383L11.902,19.235L11.961,19.088L12.022,18.942L12.085,18.797L12.149,18.652L12.215,18.509L12.283,18.366L12.352,18.224L12.423,18.084L12.496,17.944L12.57,17.806L12.646,17.668L12.723,17.531L12.802,17.396L12.883,17.261L12.965,17.128L13.049,16.995L13.135,16.864L13.221,16.734L13.31,16.605L13.4,16.477L13.491,16.35L13.584,16.224L13.678,16.099L13.774,15.976L13.871,15.854L13.97,15.733L14.07,15.613L14.172,15.494L14.275,15.377L14.379,15.261L14.484,15.146L14.591,15.033L14.7,14.92L14.809,14.809L14.92,14.7L15.033,14.591L15.146,14.484L15.261,14.379L15.377,14.275L15.494,14.172L15.613,14.07L15.733,13.97L15.854,13.871L15.976,13.774L16.099,13.678L16.224,13.584L16.35,13.491L16.477,13.4L16.605,13.31L16.734,13.221L16.864,13.135L16.995,13.049L17.128,12.965L17.261,12.883L17.396,12.802L17.531,12.723L17.668,12.646L17.806,12.57L17.944,12.496L18.084,12.423L18.224,12.352L18.366,12.283L18.509,12.215L18.652,12.149L18.797,12.085L18.942,12.022L19.088,11.961L19.235,11.902L19.383,11.845L19.532,11.789L19.682,11.736L19.832,11.684L19.984,11.633L20.136,11.585L20.289,11.538L20.443,11.494L20.597,11.451L20.753,11.41L20.909,11.37L21.066,11.333L21.223,11.298L21.381,11.264L21.54,11.233L21.7,11.203L21.86,11.176L22.021,11.15L22.183,11.126L22.345,11.105L22.508,11.085L22.672,11.067L22.836,11.052L23,11.038L23.166,11.026L23.331,11.017L23.498,11.01L23.665,11.004L23.832,11.001L24,11L24.168,11.001ZM23.857,13.001L23.715,13.004L23.574,13.008L23.433,13.014L23.292,13.022L23.152,13.032L23.013,13.044L22.874,13.057L22.736,13.072L22.598,13.089L22.46,13.107L22.324,13.127L22.188,13.149L22.052,13.172L21.917,13.197L21.783,13.224L21.649,13.252L21.516,13.282L21.383,13.313L21.252,13.346L21.12,13.381L20.99,13.417L20.86,13.455L20.73,13.495L20.602,13.535L20.474,13.578L20.347,13.622L20.22,13.667L20.094,13.714L19.969,13.763L19.845,13.813L19.721,13.864L19.599,13.917L19.477,13.971L19.355,14.027L19.235,14.084L19.115,14.143L18.996,14.203L18.878,14.264L18.761,14.327L18.644,14.391L18.529,14.457L18.414,14.524L18.3,14.592L18.187,14.662L18.075,14.733L17.964,14.805L17.854,14.879L17.744,14.953L17.636,15.03L17.528,15.107L17.422,15.186L17.316,15.265L17.212,15.347L17.108,15.429L17.006,15.513L16.904,15.597L16.804,15.683L16.705,15.771L16.606,15.859L16.509,15.948L16.413,16.039L16.318,16.131L16.224,16.224L16.131,16.318L16.039,16.413L15.948,16.509L15.859,16.606L15.771,16.705L15.683,16.804L15.597,16.904L15.513,17.006L15.429,17.108L15.347,17.212L15.265,17.316L15.186,17.422L15.107,17.528L15.03,17.636L14.953,17.744L14.879,17.854L14.805,17.964L14.733,18.075L14.662,18.187L14.592,18.3L14.524,18.414L14.457,18.529L14.391,18.644L14.327,18.761L14.264,18.878L14.203,18.996L14.143,19.115L14.084,19.235L14.027,19.355L13.971,19.477L13.917,19.599L13.864,19.721L13.813,19.845L13.763,19.969L13.714,20.094L13.667,20.22L13.622,20.347L13.578,20.474L13.535,20.602L13.495,20.73L13.455,20.86L13.417,20.99L13.381,21.12L13.346,21.252L13.313,21.383L13.282,21.516L13.252,21.649L13.224,21.783L13.197,21.917L13.172,22.052L13.149,22.188L13.127,22.324L13.107,22.46L13.089,22.598L13.072,22.736L13.057,22.874L13.044,23.013L13.032,23.152L13.022,23.292L13.014,23.433L13.008,23.574L13.004,23.715L13.001,23.857L13,24L13.001,24.143L13.004,24.285L13.008,24.426L13.014,24.567L13.022,24.708L13.032,24.848L13.044,24.987L13.057,25.126L13.072,25.264L13.089,25.402L13.107,25.54L13.127,25.676L13.149,25.812L13.172,25.948L13.197,26.083L13.224,26.217L13.252,26.351L13.282,26.484L13.313,26.617L13.346,26.748L13.381,26.88L13.417,27.01L13.455,27.14L13.495,27.27L13.535,27.398L13.578,27.526L13.622,27.653L13.667,27.78L13.714,27.906L13.763,28.031L13.813,28.155L13.864,28.279L13.917,28.401L13.971,28.523L14.027,28.645L14.084,28.765L14.143,28.885L14.203,29.004L14.264,29.122L14.327,29.239L14.391,29.356L14.457,29.471L14.524,29.586L14.592,29.7L14.662,29.813L14.733,29.925L14.805,30.036L14.879,30.146L14.953,30.256L15.03,30.364L15.107,30.472L15.186,30.578L15.265,30.684L15.347,30.788L15.429,30.892L15.513,30.994L15.597,31.096L15.683,31.196L15.771,31.295L15.859,31.394L15.948,31.491L16.039,31.587L16.131,31.682L16.224,31.776L16.318,31.869L16.413,31.961L16.509,32.052L16.606,32.141L16.705,32.229L16.804,32.317L16.904,32.403L17.006,32.487L17.108,32.571L17.212,32.653L17.316,32.735L17.422,32.814L17.528,32.893L17.636,32.97L17.744,33.047L17.854,33.121L17.964,33.195L18.075,33.267L18.187,33.338L18.3,33.408L18.414,33.476L18.529,33.543L18.644,33.609L18.761,33.673L18.878,33.736L18.996,33.797L19.115,33.857L19.235,33.916L19.355,33.973L19.477,34.029L19.599,34.083L19.721,34.136L19.845,34.187L19.969,34.237L20.094,34.286L20.22,34.333L20.347,34.378L20.474,34.422L20.602,34.465L20.73,34.505L20.86,34.545L20.99,34.583L21.12,34.619L21.252,34.654L21.383,34.687L21.516,34.718L21.649,34.748L21.783,34.776L21.917,34.803L22.052,34.828L22.188,34.851L22.324,34.873L22.46,34.893L22.598,34.911L22.736,34.928L22.874,34.943L23.013,34.956L23.152,34.968L23.292,34.978L23.433,34.986L23.574,34.992L23.715,34.996L23.857,34.999L24,35L24.143,34.999L24.285,34.996L24.426,34.992L24.567,34.986L24.708,34.978L24.848,34.968L24.987,34.956L25.126,34.943L25.264,34.928L25.402,34.911L25.54,34.893L25.676,34.873L25.812,34.851L25.948,34.828L26.083,34.803L26.217,34.776L26.351,34.748L26.484,34.718L26.617,34.687L26.748,34.654L26.88,34.619L27.01,34.583L27.14,34.545L27.27,34.505L27.398,34.465L27.526,34.422L27.653,34.378L27.78,34.333L27.906,34.286L28.031,34.237L28.155,34.187L28.279,34.136L28.401,34.083L28.523,34.029L28.645,33.973L28.765,33.916L28.885,33.857L29.004,33.797L29.122,33.736L29.239,33.673L29.356,33.609L29.471,33.543L29.586,33.476L29.7,33.408L29.813,33.338L29.925,33.267L30.036,33.195L30.146,33.121L30.256,33.047L30.364,32.97L30.472,32.893L30.578,32.814L30.684,32.735L30.788,32.653L30.892,32.571L30.994,32.487L31.096,32.403L31.196,32.317L31.295,32.229L31.394,32.141L31.491,32.052L31.587,31.961L31.682,31.869L31.776,31.776L31.869,31.682L31.961,31.587L32.052,31.491L32.141,31.394L32.229,31.295L32.317,31.196L32.403,31.096L32.487,30.994L32.571,30.892L32.653,30.788L32.735,30.684L32.814,30.578L32.893,30.472L32.97,30.364L33.047,30.256L33.121,30.146L33.195,30.036L33.267,29.925L33.338,29.813L33.408,29.7L33.476,29.586L33.543,29.471L33.609,29.356L33.673,29.239L33.736,29.122L33.797,29.004L33.857,28.885L33.916,28.765L33.973,28.645L34.029,28.523L34.083,28.401L34.136,28.279L34.187,28.155L34.237,28.031L34.286,27.906L34.333,27.78L34.378,27.653L34.422,27.526L34.465,27.398L34.505,27.27L34.545,27.14L34.583,27.01L34.619,26.88L34.654,26.748L34.687,26.617L34.718,26.484L34.748,26.351L34.776,26.217L34.803,26.083L34.828,25.948L34.851,25.812L34.873,25.676L34.893,25.54L34.911,25.402L34.928,25.264L34.943,25.126L34.956,24.987L34.968,24.848L34.978,24.708L34.986,24.567L34.992,24.426L34.996,24.285L34.999,24.143L35,24L34.999,23.857L34.996,23.715L34.992,23.574L34.986,23.433L34.978,23.292L34.968,23.152L34.956,23.013L34.943,22.874L34.928,22.736L34.911,22.598L34.893,22.46L34.873,22.324L34.851,22.188L34.828,22.052L34.803,21.917L34.776,21.783L34.748,21.649L34.718,21.516L34.687,21.383L34.654,21.252L34.619,21.12L34.583,20.99L34.545,20.86L34.505,20.73L34.465,20.602L34.422,20.474L34.378,20.347L34.333,20.22L34.286,20.094L34.237,19.969L34.187,19.845L34.136,19.721L34.083,19.599L34.029,19.477L33.973,19.355L33.916,19.235L33.857,19.115L33.797,18.996L33.736,18.878L33.673,18.761L33.609,18.644L33.543,18.529L33.476,18.414L33.408,18.3L33.338,18.187L33.267,18.075L33.195,17.964L33.121,17.854L33.047,17.744L32.97,17.636L32.893,17.528L32.814,17.422L32.735,17.316L32.653,17.212L32.571,17.108L32.487,17.006L32.403,16.904L32.317,16.804L32.229,16.705L32.141,16.606L32.052,16.509L31.961,16.413L31.869,16.318L31.776,16.224L31.682,16.131L31.587,16.039L31.491,15.948L31.394,15.859L31.295,15.771L31.196,15.683L31.096,15.597L30.994,15.513L30.892,15.429L30.788,15.347L30.684,15.265L30.578,15.186L30.472,15.107L30.364,15.03L30.256,14.953L30.146,14.879L30.036,14.805L29.925,14.733L29.813,14.662L29.7,14.592L29.586,14.524L29.471,14.457L29.356,14.391L29.239,14.327L29.122,14.264L29.004,14.203L28.885,14.143L28.765,14.084L28.645,14.027L28.523,13.971L28.401,13.917L28.279,13.864L28.155,13.813L28.031,13.763L27.906,13.714L27.78,13.667L27.653,13.622L27.526,13.578L27.398,13.535L27.27,13.495L27.14,13.455L27.01,13.417L26.88,13.381L26.748,13.346L26.617,13.313L26.484,13.282L26.351,13.252L26.217,13.224L26.083,13.197L25.948,13.172L25.812,13.149L25.676,13.127L25.54,13.107L25.402,13.089L25.264,13.072L25.126,13.057L24.987,13.044L24.848,13.032L24.708,13.022L24.567,13.014L24.426,13.008L24.285,13.004L24.143,13.001L24,13L23.857,13.001Z" style="fill:#fff;"/><g id="aperture"><path d="M14,18L28,18" style="fill:none;stroke:#fff;stroke-width:2px;"/><path d="M24,11.876L31,24" style="fill:none;stroke:#fff;stroke-width:2px;"/><path d="M34.5,17.938L27.5,30.062" style="fill:none;stroke:#fff;stroke-width:2px;"/><path d="M20,30L34,30" style="fill:none;stroke:#fff;stroke-width:2px;"/><path d="M24,36.124L17,24" style="fill:none;stroke:#fff;stroke-width:2px;"/><path d="M13.5,30.062L20.5,17.938" style="fill:none;stroke:#fff;stroke-width:2px;"/></g></svg>