<?xml version="1.0" encoding="UTF-8" standalone="no"?><!DOCTYPE svg PUBLIC "-//W3C//DTD SVG 1.1//EN" "http://www.w3.org/Graphics/SVG/1.1/DTD/svg11.dtd"><svg width="64px" height="64px" version="1.1" xmlns="http://www.w3.org/2000/svg" xmlns:xlink="http://www.w3.org/1999/xlink" xml:space="preserve" style="fill-rule:evenodd;clip-rule:evenodd;stroke-linejoin:round;stroke-miterlimit:1.41421;"><g id="canister"><path d="M37,13C37,12.448 36.552,12 36,12C34.084,12 29.916,12 28,12C27.448,12 27,12.448 27,13C27,14.185 27,16 27,16L37,16C37,16 37,14.185 37,13Z" style="fill:#555;"/><path d="M42,18C42,17.47 41.789,16.961 41.414,16.586C41.039,16.211 40.53,16 40,16C36.168,16 27.832,16 24,16C23.47,16 22.961,16.211 22.586,16.586C22.211,16.961 22,17.47 22,18C22,18 22,18 22,18L42,18C42,18 42,18 42,18Z" style="fill:#666;"/><rect x="22" y="18" width="20" height="32" style="fill:#888;"/><path d="M42,50L22,50C22,50 22,50 22,50C22,50.53 22.211,51.039 22.586,51.414C22.961,51.789 23.47,52 24,52C27.832,52 36.168,52 40,52C40.53,52 41.039,51.789 41.414,51.414C41.789,51.039 42,50.53 42,50C42,50 42,50 42,50Z" style="fill:#666;"/></g><clipPath id="_clip1"><path id="film" d="M52,22L52,48C52,48 29.826,48 26.433,48C26.318,48 26.208,47.895 26.127,47.707C26.046,47.52 26,47.265 26,47C26,42.866 26,27.134 26,23C26,22.735 26.046,22.48 26.127,22.293C26.208,22.105 26.318,22 26.433,22C29.826,22 52,22 52,22Z"/></clipPath><g clip-path="url(#_clip1)"><path d="M50.125,22L51,25.5L50,29.5L52,32.5L49,35.5L51,37.5L50,39.5L52,42.5L50,45.5L51.667,48L26,48L26,22L50.125,22ZM29,43.5C29,43.367 28.947,43.24 28.854,43.146C28.76,43.053 28.633,43 28.5,43C28.195,43 27.805,43 27.5,43C27.367,43 27.24,43.053 27.146,43.146C27.053,43.24 27,43.367 27,43.5C27,44.055 27,44.945 27,45.5C27,45.633 27.053,45.76 27.146,45.854C27.24,45.947 27.367,46 27.5,46C27.805,46 28.195,46 28.5,46C28.633,46 28.76,45.947 28.854,45.854C28.947,45.76 29,45.633 29,45.5C29,44.945 29,44.055 29,43.5ZM34,43.5C34,43.367 33.947,43.24 33.854,43.146C33.76,43.053 33.633,43 33.5,43C33.195,43 32.805,43 32.5,43C32.367,43 32.24,43.053 32.146,43.146C32.053,43.24 32,43.367 32,43.5C32,44.055 32,44.945 32,45.5C32,45.633 32.053,45.76 32.146,45.854C32.24,45.947 32.367,46 32.5,46C32.805,46 33.195,46 33.5,46C33.633,46 33.76,45.947 33.854,45.854C33.947,45.76 34,45.633 34,45.5C34,44.945 34,44.055 34,43.5ZM39,43.5C39,43.367 38.947,43.24 38.854,43.146C38.76,43.053 38.633,43 38.5,43C38.195,43 37.805,43 37.5,43C37.367,43 37.24,43.053 37.146,43.146C37.053,43.24 37,43.367 37,43.5C37,44.055 37,44.945 37,45.5C37,45.633 37.053,45.76 37.146,45.854C37.24,45.947 37.367,46 37.5,46C37.805,46 38.195,46 38.5,46C38.633,46 38.76,45.947 38.854,45.854C38.947,45.76 39,45.633 39,45.5C39,44.945 39,44.055 39,43.5ZM44,43.5C44,43.367 43.947,43.24 43.854,43.146C43.76,43.053 43.633,43 43.5,43C43.195,43 42.805,43 42.5,43C42.367,43 42.24,43.053 42.146,43.146C42.053,43.24 42,43.367 42,43.5C42,44.055 42,44.945 42,45.5C42,45.633 42.053,45.76 42.146,45.854C42.24,45.947 42.367,46 42.5,46C42.805,46 43.195,46 43.5,46C43.633,46 43.76,45.947 43.854,45.854C43.947,45.76 44,45.633 44,45.5C44,44.945 44,44.055 44,43.5ZM49,43.5C49,43.367 48.947,43.24 48.854,43.146C48.76,43.053 48.633,43 48.5,43C48.195,43 47.805,43 47.5,43C47.367,43 47.24,43.053 47.146,43.146C47.053,43.24 47,43.367 47,43.5C47,44.055 47,44.945 47,45.5C47,45.633 47.053,45.76 47.146,45.854C47.24,45.947 47.367,46 47.5,46C47.805,46 48.195,46 48.5,46C48.633,46 48.76,45.947 48.854,45.854C48.947,45.76 49,45.633 49,45.5C49,44.945 49,44.055 49,43.5ZM29,24.5C29,24.367 28.947,24.24 28.854,24.146C28.76,24.053 28.633,24 28.5,24C28.195,24 27.805,24 27.5,24C27.367,24 27.24,24.053 27.146,24.146C27.053,24.24 27,24.367 27,24.5C27,25.055 27,25.945 27,26.5C27,26.633 27.053,26.76 27.146,26.854C27.24,26.947 27.367,27 27.5,27C27.805,27 28.195,27 28.5,27C28.633,27 28.76,26.947 28.854,26.854C28.947,26.76 29,26.633 29,26.5C29,25.945 29,25.055 29,24.5ZM34,24.5C34,24.367 33.947,24.24 33.854,24.146C33.76,24.053 33.633,24 33.5,24C33.195,24 32.805,24 32.5,24C32.367,24 32.24,24.053 32.146,24.146C32.053,24.24 32,24.367 32,24.5C32,25.055 32,25.945 32,26.5C32,26.633 32.053,26.76 32.146,26.854C32.24,26.947 32.367,27 32.5,27C32.805,27 33.195,27 33.5,27C33.633,27 33.76,26.947 33.854,26.854C33.947,26.76 34,26.633 34,26.5C34,25.945 34,25.055 34,24.5ZM39,24.5C39,24.367 38.947,24.24 38.854,24.146C38.76,24.053 38.633,24 38.5,24C38.195,24 37.805,24 37.5,24C37.367,24 37.24,24.053 37.146,24.146C37.053,24.24 37,24.367 37,24.5C37,25.055 37,25.945 37,26.5C37,26.633 37.053,26.76 37.146,26.854C37.24,26.947 37.367,27 37.5,27C37.805,27 38.195,27 38.5,27C38.633,27 38.76,26.947 38.854,26.854C38.947,26.76 39,26.633 39,26.5C39,25.945 39,25.055 39,24.5ZM44,24.5C44,24.367 43.947,24.24 43.854,24.146C43.76,24.053 43.633,24 43.5,24C43.195,24 42.805,24 42.5,24C42.367,24 42.24,24.053 42.146,24.146C42.053,24.24 42,24.367 42,24.5C42,25.055 42,25.945 42,26.5C42,26.633 42.053,26.76 42.146,26.854C42.24,26.947 42.367,27 42.5,27C42.805,27 43.195,27 43.5,27C43.633,27 43.76,26.947 43.854,26.854C43.947,26.76 44,26.633 44,26.5C44,25.945 44,25.055 44,24.5ZM49,24.5C49,24.367 48.947,24.24 48.854,24.146C48.76,24.053 48.633,24 48.5,24C48.195,24 47.805,24 47.5,24C47.367,24 47.24,24.053 47.146,24.146C47.053,24.24 47,24.367 47,24.5C47,25.055 47,25.945 47,26.5C47,26.633 47.053,26.76 47.146,26.854C47.24,26.947 47.367,27 47.5,27C47.805,27 48.195,27 48.5,27C48.633,27 48.76,26.947 48.854,26.854C48.947,26.76 49,26.633 49,26.5C49,25.945 49,25.055 49,24.5Z" style="fill:#aaa;"/></g></svg>