<?xml version="1.0" encoding="UTF-8" standalone="no"?><!DOCTYPE svg PUBLIC "-//W3C//DTD SVG 1.1//EN" "http://www.w3.org/Graphics/SVG/1.1/DTD/svg11.dtd"><svg width="16px" height="16px" version="1.1" xmlns="http://www.w3.org/2000/svg" xmlns:xlink="http://www.w3.org/1999/xlink" xml:space="preserve" style="fill-rule:evenodd;clip-rule:evenodd;stroke-linejoin:round;stroke-miterlimit:1.5;"><path id="iris" d="M8.103,0.001L8.206,0.003L8.309,0.006L8.411,0.01L8.513,0.016L8.615,0.023L8.716,0.032L8.817,0.041L8.918,0.052L9.018,0.064L9.118,0.078L9.218,0.092L9.317,0.108L9.415,0.125L9.514,0.143L9.611,0.163L9.709,0.183L9.806,0.205L9.902,0.228L9.998,0.252L10.094,0.277L10.189,0.304L10.284,0.331L10.378,0.36L10.472,0.39L10.565,0.421L10.657,0.453L10.749,0.486L10.841,0.52L10.932,0.555L11.023,0.592L11.113,0.629L11.202,0.668L11.291,0.707L11.379,0.748L11.467,0.789L11.554,0.832L11.641,0.876L11.727,0.92L11.812,0.966L11.897,1.013L11.981,1.061L12.064,1.109L12.147,1.159L12.229,1.209L12.311,1.261L12.391,1.314L12.472,1.367L12.551,1.421L12.63,1.477L12.708,1.533L12.785,1.59L12.862,1.648L12.938,1.707L13.013,1.767L13.088,1.828L13.161,1.889L13.234,1.952L13.306,2.015L13.378,2.079L13.449,2.144L13.518,2.21L13.587,2.277L13.656,2.344L13.723,2.413L13.79,2.482L13.856,2.551L13.921,2.622L13.985,2.694L14.048,2.766L14.111,2.839L14.172,2.912L14.233,2.987L14.293,3.062L14.352,3.138L14.41,3.215L14.467,3.292L14.523,3.37L14.579,3.449L14.633,3.528L14.686,3.609L14.739,3.689L14.791,3.771L14.841,3.853L14.891,3.936L14.939,4.019L14.987,4.103L15.034,4.188L15.08,4.273L15.124,4.359L15.168,4.446L15.211,4.533L15.252,4.621L15.293,4.709L15.332,4.798L15.371,4.887L15.408,4.977L15.445,5.068L15.48,5.159L15.514,5.251L15.547,5.343L15.579,5.435L15.61,5.528L15.64,5.622L15.669,5.716L15.696,5.811L15.723,5.906L15.748,6.002L15.772,6.098L15.795,6.194L15.817,6.291L15.837,6.389L15.857,6.486L15.875,6.585L15.892,6.683L15.908,6.782L15.922,6.882L15.936,6.982L15.948,7.082L15.959,7.183L15.968,7.284L15.977,7.385L15.984,7.487L15.99,7.589L15.994,7.691L15.997,7.794L15.999,7.897L16,8L15.999,8.103L15.997,8.206L15.994,8.309L15.99,8.411L15.984,8.513L15.977,8.615L15.968,8.716L15.959,8.817L15.948,8.918L15.936,9.018L15.922,9.118L15.908,9.218L15.892,9.317L15.875,9.415L15.857,9.514L15.837,9.611L15.817,9.709L15.795,9.806L15.772,9.902L15.748,9.998L15.723,10.094L15.696,10.189L15.669,10.284L15.64,10.378L15.61,10.472L15.579,10.565L15.547,10.657L15.514,10.749L15.48,10.841L15.445,10.932L15.408,11.023L15.371,11.113L15.332,11.202L15.293,11.291L15.252,11.379L15.211,11.467L15.168,11.554L15.124,11.641L15.08,11.727L15.034,11.812L14.987,11.897L14.939,11.981L14.891,12.064L14.841,12.147L14.791,12.229L14.739,12.311L14.686,12.391L14.633,12.472L14.579,12.551L14.523,12.63L14.467,12.708L14.41,12.785L14.352,12.862L14.293,12.938L14.233,13.013L14.172,13.088L14.111,13.161L14.048,13.234L13.985,13.306L13.921,13.378L13.856,13.449L13.79,13.518L13.723,13.587L13.656,13.656L13.587,13.723L13.518,13.79L13.449,13.856L13.378,13.921L13.306,13.985L13.234,14.048L13.161,14.111L13.088,14.172L13.013,14.233L12.938,14.293L12.862,14.352L12.785,14.41L12.708,14.467L12.63,14.523L12.551,14.579L12.472,14.633L12.391,14.686L12.311,14.739L12.229,14.791L12.147,14.841L12.064,14.891L11.981,14.939L11.897,14.987L11.812,15.034L11.727,15.08L11.641,15.124L11.554,15.168L11.467,15.211L11.379,15.252L11.291,15.293L11.202,15.332L11.113,15.371L11.023,15.408L10.932,15.445L10.841,15.48L10.749,15.514L10.657,15.547L10.565,15.579L10.472,15.61L10.378,15.64L10.284,15.669L10.189,15.696L10.094,15.723L9.998,15.748L9.902,15.772L9.806,15.795L9.709,15.817L9.611,15.837L9.514,15.857L9.415,15.875L9.317,15.892L9.218,15.908L9.118,15.922L9.018,15.936L8.918,15.948L8.817,15.959L8.716,15.968L8.615,15.977L8.513,15.984L8.411,15.99L8.309,15.994L8.206,15.997L8.103,15.999L8,16L7.897,15.999L7.794,15.997L7.691,15.994L7.589,15.99L7.487,15.984L7.385,15.977L7.284,15.968L7.183,15.959L7.082,15.948L6.982,15.936L6.882,15.922L6.782,15.908L6.683,15.892L6.585,15.875L6.486,15.857L6.389,15.837L6.291,15.817L6.194,15.795L6.098,15.772L6.002,15.748L5.906,15.723L5.811,15.696L5.716,15.669L5.622,15.64L5.528,15.61L5.435,15.579L5.343,15.547L5.251,15.514L5.159,15.48L5.068,15.445L4.977,15.408L4.887,15.371L4.798,15.332L4.709,15.293L4.621,15.252L4.533,15.211L4.446,15.168L4.359,15.124L4.273,15.08L4.188,15.034L4.103,14.987L4.019,14.939L3.936,14.891L3.853,14.841L3.771,14.791L3.689,14.739L3.609,14.686L3.528,14.633L3.449,14.579L3.37,14.523L3.292,14.467L3.215,14.41L3.138,14.352L3.062,14.293L2.987,14.233L2.912,14.172L2.839,14.111L2.766,14.048L2.694,13.985L2.622,13.921L2.551,13.856L2.482,13.79L2.413,13.723L2.344,13.656L2.277,13.587L2.21,13.518L2.144,13.449L2.079,13.378L2.015,13.306L1.952,13.234L1.889,13.161L1.828,13.088L1.767,13.013L1.707,12.938L1.648,12.862L1.59,12.785L1.533,12.708L1.477,12.63L1.421,12.551L1.367,12.472L1.314,12.391L1.261,12.311L1.209,12.229L1.159,12.147L1.109,12.064L1.061,11.981L1.013,11.897L0.966,11.812L0.92,11.727L0.876,11.641L0.832,11.554L0.789,11.467L0.748,11.379L0.707,11.291L0.668,11.202L0.629,11.113L0.592,11.023L0.555,10.932L0.52,10.841L0.486,10.749L0.453,10.657L0.421,10.565L0.39,10.472L0.36,10.378L0.331,10.284L0.304,10.189L0.277,10.094L0.252,9.998L0.228,9.902L0.205,9.806L0.183,9.709L0.163,9.611L0.143,9.514L0.125,9.415L0.108,9.317L0.092,9.218L0.078,9.118L0.064,9.018L0.052,8.918L0.041,8.817L0.032,8.716L0.023,8.615L0.016,8.513L0.01,8.411L0.006,8.309L0.003,8.206L0.001,8.103L0,8L0.001,7.897L0.003,7.794L0.006,7.691L0.01,7.589L0.016,7.487L0.023,7.385L0.032,7.284L0.041,7.183L0.052,7.082L0.064,6.982L0.078,6.882L0.092,6.782L0.108,6.683L0.125,6.585L0.143,6.486L0.163,6.389L0.183,6.291L0.205,6.194L0.228,6.098L0.252,6.002L0.277,5.906L0.304,5.811L0.331,5.716L0.36,5.622L0.39,5.528L0.421,5.435L0.453,5.343L0.486,5.251L0.52,5.159L0.555,5.068L0.592,4.977L0.629,4.887L0.668,4.798L0.707,4.709L0.748,4.621L0.789,4.533L0.832,4.446L0.876,4.359L0.92,4.273L0.966,4.188L1.013,4.103L1.061,4.019L1.109,3.936L1.159,3.853L1.209,3.771L1.261,3.689L1.314,3.609L1.367,3.528L1.421,3.449L1.477,3.37L1.533,3.292L1.59,3.215L1.648,3.138L1.707,3.062L1.767,2.987L1.828,2.912L1.889,2.839L1.952,2.766L2.015,2.694L2.079,2.622L2.144,2.551L2.21,2.482L2.277,2.413L2.344,2.344L2.413,2.277L2.482,2.21L2.551,2.144L2.622,2.079L2.694,2.015L2.766,1.952L2.839,1.889L2.912,1.828L2.987,1.767L3.062,1.707L3.138,1.648L3.215,1.59L3.292,1.533L3.37,1.477L3.449,1.421L3.528,1.367L3.609,1.314L3.689,1.261L3.771,1.209L3.853,1.159L3.936,1.109L4.019,1.061L4.103,1.013L4.188,0.966L4.273,0.92L4.359,0.876L4.446,0.832L4.533,0.789L4.621,0.748L4.709,0.707L4.798,0.668L4.887,0.629L4.977,0.592L5.068,0.555L5.159,0.52L5.251,0.486L5.343,0.453L5.435,0.421L5.528,0.39L5.622,0.36L5.716,0.331L5.811,0.304L5.906,0.277L6.002,0.252L6.098,0.228L6.194,0.205L6.291,0.183L6.389,0.163L6.486,0.143L6.585,0.125L6.683,0.108L6.782,0.092L6.882,0.078L6.982,0.064L7.082,0.052L7.183,0.041L7.284,0.032L7.385,0.023L7.487,0.016L7.589,0.01L7.691,0.006L7.794,0.003L7.897,0.001L8,0L8.103,0.001ZM7.909,1.001L7.819,1.002L7.729,1.005L7.639,1.009L7.55,1.014L7.461,1.02L7.372,1.028L7.284,1.036L7.196,1.046L7.108,1.056L7.021,1.068L6.934,1.081L6.847,1.095L6.761,1.109L6.675,1.125L6.589,1.142L6.504,1.16L6.419,1.179L6.335,1.199L6.251,1.22L6.168,1.243L6.084,1.266L6.002,1.29L5.919,1.315L5.838,1.341L5.756,1.368L5.675,1.396L5.595,1.425L5.515,1.455L5.435,1.485L5.356,1.517L5.277,1.55L5.199,1.584L5.121,1.618L5.044,1.654L4.967,1.69L4.891,1.727L4.815,1.766L4.74,1.805L4.666,1.845L4.591,1.886L4.518,1.927L4.445,1.97L4.372,2.013L4.301,2.058L4.229,2.103L4.159,2.149L4.088,2.196L4.019,2.243L3.95,2.292L3.881,2.341L3.814,2.391L3.747,2.442L3.68,2.493L3.614,2.546L3.549,2.599L3.485,2.653L3.421,2.708L3.357,2.763L3.295,2.819L3.233,2.876L3.172,2.934L3.111,2.992L3.051,3.051L2.992,3.111L2.934,3.172L2.876,3.233L2.819,3.295L2.763,3.357L2.708,3.421L2.653,3.485L2.599,3.549L2.546,3.614L2.493,3.68L2.442,3.747L2.391,3.814L2.341,3.881L2.292,3.95L2.243,4.019L2.196,4.088L2.149,4.159L2.103,4.229L2.058,4.301L2.013,4.372L1.97,4.445L1.927,4.518L1.886,4.591L1.845,4.666L1.805,4.74L1.766,4.815L1.727,4.891L1.69,4.967L1.654,5.044L1.618,5.121L1.584,5.199L1.55,5.277L1.517,5.356L1.485,5.435L1.455,5.515L1.425,5.595L1.396,5.675L1.368,5.756L1.341,5.838L1.315,5.919L1.29,6.002L1.266,6.084L1.243,6.168L1.22,6.251L1.199,6.335L1.179,6.419L1.16,6.504L1.142,6.589L1.125,6.675L1.109,6.761L1.095,6.847L1.081,6.934L1.068,7.021L1.056,7.108L1.046,7.196L1.036,7.284L1.028,7.372L1.02,7.461L1.014,7.55L1.009,7.639L1.005,7.729L1.002,7.819L1.001,7.909L1,8L1.001,8.091L1.002,8.181L1.005,8.271L1.009,8.361L1.014,8.45L1.02,8.539L1.028,8.628L1.036,8.716L1.046,8.804L1.056,8.892L1.068,8.979L1.081,9.066L1.095,9.153L1.109,9.239L1.125,9.325L1.142,9.411L1.16,9.496L1.179,9.581L1.199,9.665L1.22,9.749L1.243,9.832L1.266,9.916L1.29,9.998L1.315,10.081L1.341,10.162L1.368,10.244L1.396,10.325L1.425,10.405L1.455,10.485L1.485,10.565L1.517,10.644L1.55,10.723L1.584,10.801L1.618,10.879L1.654,10.956L1.69,11.033L1.727,11.109L1.766,11.185L1.805,11.26L1.845,11.334L1.886,11.409L1.927,11.482L1.97,11.555L2.013,11.628L2.058,11.699L2.103,11.771L2.149,11.841L2.196,11.912L2.243,11.981L2.292,12.05L2.341,12.119L2.391,12.186L2.442,12.253L2.493,12.32L2.546,12.386L2.599,12.451L2.653,12.515L2.708,12.579L2.763,12.643L2.819,12.705L2.876,12.767L2.934,12.828L2.992,12.889L3.051,12.949L3.111,13.008L3.172,13.066L3.233,13.124L3.295,13.181L3.357,13.237L3.421,13.292L3.485,13.347L3.549,13.401L3.614,13.454L3.68,13.507L3.747,13.558L3.814,13.609L3.881,13.659L3.95,13.708L4.019,13.757L4.088,13.804L4.159,13.851L4.229,13.897L4.301,13.942L4.372,13.987L4.445,14.03L4.518,14.073L4.591,14.114L4.666,14.155L4.74,14.195L4.815,14.234L4.891,14.273L4.967,14.31L5.044,14.346L5.121,14.382L5.199,14.416L5.277,14.45L5.356,14.483L5.435,14.515L5.515,14.545L5.595,14.575L5.675,14.604L5.756,14.632L5.838,14.659L5.919,14.685L6.002,14.71L6.084,14.734L6.168,14.757L6.251,14.78L6.335,14.801L6.419,14.821L6.504,14.84L6.589,14.858L6.675,14.875L6.761,14.891L6.847,14.905L6.934,14.919L7.021,14.932L7.108,14.944L7.196,14.954L7.284,14.964L7.372,14.972L7.461,14.98L7.55,14.986L7.639,14.991L7.729,14.995L7.819,14.998L7.909,14.999L8,15L8.091,14.999L8.181,14.998L8.271,14.995L8.361,14.991L8.45,14.986L8.539,14.98L8.628,14.972L8.716,14.964L8.804,14.954L8.892,14.944L8.979,14.932L9.066,14.919L9.153,14.905L9.239,14.891L9.325,14.875L9.411,14.858L9.496,14.84L9.581,14.821L9.665,14.801L9.749,14.78L9.832,14.757L9.916,14.734L9.998,14.71L10.081,14.685L10.162,14.659L10.244,14.632L10.325,14.604L10.405,14.575L10.485,14.545L10.565,14.515L10.644,14.483L10.723,14.45L10.801,14.416L10.879,14.382L10.956,14.346L11.033,14.31L11.109,14.273L11.185,14.234L11.26,14.195L11.334,14.155L11.409,14.114L11.482,14.073L11.555,14.03L11.628,13.987L11.699,13.942L11.771,13.897L11.841,13.851L11.912,13.804L11.981,13.757L12.05,13.708L12.119,13.659L12.186,13.609L12.253,13.558L12.32,13.507L12.386,13.454L12.451,13.401L12.515,13.347L12.579,13.292L12.643,13.237L12.705,13.181L12.767,13.124L12.828,13.066L12.889,13.008L12.949,12.949L13.008,12.889L13.066,12.828L13.124,12.767L13.181,12.705L13.237,12.643L13.292,12.579L13.347,12.515L13.401,12.451L13.454,12.386L13.507,12.32L13.558,12.253L13.609,12.186L13.659,12.119L13.708,12.05L13.757,11.981L13.804,11.912L13.851,11.841L13.897,11.771L13.942,11.699L13.987,11.628L14.03,11.555L14.073,11.482L14.114,11.409L14.155,11.334L14.195,11.26L14.234,11.185L14.273,11.109L14.31,11.033L14.346,10.956L14.382,10.879L14.416,10.801L14.45,10.723L14.483,10.644L14.515,10.565L14.545,10.485L14.575,10.405L14.604,10.325L14.632,10.244L14.659,10.162L14.685,10.081L14.71,9.998L14.734,9.916L14.757,9.832L14.78,9.749L14.801,9.665L14.821,9.581L14.84,9.496L14.858,9.411L14.875,9.325L14.891,9.239L14.905,9.153L14.919,9.066L14.932,8.979L14.944,8.892L14.954,8.804L14.964,8.716L14.972,8.628L14.98,8.539L14.986,8.45L14.991,8.361L14.995,8.271L14.998,8.181L14.999,8.091L15,8L14.999,7.909L14.998,7.819L14.995,7.729L14.991,7.639L14.986,7.55L14.98,7.461L14.972,7.372L14.964,7.284L14.954,7.196L14.944,7.108L14.932,7.021L14.919,6.934L14.905,6.847L14.891,6.761L14.875,6.675L14.858,6.589L14.84,6.504L14.821,6.419L14.801,6.335L14.78,6.251L14.757,6.168L14.734,6.084L14.71,6.002L14.685,5.919L14.659,5.838L14.632,5.756L14.604,5.675L14.575,5.595L14.545,5.515L14.515,5.435L14.483,5.356L14.45,5.277L14.416,5.199L14.382,5.121L14.346,5.044L14.31,4.967L14.273,4.891L14.234,4.815L14.195,4.74L14.155,4.666L14.114,4.591L14.073,4.518L14.03,4.445L13.987,4.372L13.942,4.301L13.897,4.229L13.851,4.159L13.804,4.088L13.757,4.019L13.708,3.95L13.659,3.881L13.609,3.814L13.558,3.747L13.507,3.68L13.454,3.614L13.401,3.549L13.347,3.485L13.292,3.421L13.237,3.357L13.181,3.295L13.124,3.233L13.066,3.172L13.008,3.111L12.949,3.051L12.889,2.992L12.828,2.934L12.767,2.876L12.705,2.819L12.643,2.763L12.579,2.708L12.515,2.653L12.451,2.599L12.386,2.546L12.32,2.493L12.253,2.442L12.186,2.391L12.119,2.341L12.05,2.292L11.981,2.243L11.912,2.196L11.841,2.149L11.771,2.103L11.699,2.058L11.628,2.013L11.555,1.97L11.482,1.927L11.409,1.886L11.334,1.845L11.26,1.805L11.185,1.766L11.109,1.727L11.033,1.69L10.956,1.654L10.879,1.618L10.801,1.584L10.723,1.55L10.644,1.517L10.565,1.485L10.485,1.455L10.405,1.425L10.325,1.396L10.244,1.368L10.162,1.341L10.081,1.315L9.998,1.29L9.916,1.266L9.832,1.243L9.749,1.22L9.665,1.199L9.581,1.179L9.496,1.16L9.411,1.142L9.325,1.125L9.239,1.109L9.153,1.095L9.066,1.081L8.979,1.068L8.892,1.056L8.804,1.046L8.716,1.036L8.628,1.028L8.539,1.02L8.45,1.014L8.361,1.009L8.271,1.005L8.181,1.002L8.091,1.001L8,1L7.909,1.001Z"/><g id="aperture"><path d="M1.5,4.5L10,4.5" style="fill:none;stroke:#000;stroke-width:1px;"/><path d="M8,0.639L12.25,8" style="fill:none;stroke:#000;stroke-width:1px;"/><path d="M14.375,4.319L10.125,11.681" style="fill:none;stroke:#000;stroke-width:1px;"/><path d="M6,11.5L14.5,11.5" style="fill:none;stroke:#000;stroke-width:1px;"/><path d="M3.75,8L8,15.361" style="fill:none;stroke:#000;stroke-width:1px;"/><path d="M5.875,4.319L1.625,11.681" style="fill:none;stroke:#000;stroke-width:1px;"/></g></svg>